<?xml version="1.0" encoding="UTF-8" standalone="no"?>
<!-- Generator: Adobe Illustrator 19.2.0, SVG Export Plug-In . SVG Version: 6.00 Build 0)  -->

<svg
   xmlns:dc="http://purl.org/dc/elements/1.1/"
   xmlns:cc="http://creativecommons.org/ns#"
   xmlns:rdf="http://www.w3.org/1999/02/22-rdf-syntax-ns#"
   xmlns:svg="http://www.w3.org/2000/svg"
   xmlns="http://www.w3.org/2000/svg"
   xmlns:xlink="http://www.w3.org/1999/xlink"
   xmlns:sodipodi="http://sodipodi.sourceforge.net/DTD/sodipodi-0.dtd"
   xmlns:inkscape="http://www.inkscape.org/namespaces/inkscape"
   version="1.1"
   id="Layer_1"
   x="0px"
   y="0px"
   viewBox="0 0 632.2 283.5"
   style="enable-background:new 0 0 632.2 283.5;"
   xml:space="preserve"
   inkscape:version="0.91 r13725"
   sodipodi:docname="C3S_combined.svg"
   inkscape:export-filename="/Users/stephan/Downloads/Fwd C3S emblem and Copernicus logo in vector formats/C3S_combined.png"
   inkscape:export-xdpi="300"
   inkscape:export-ydpi="300"><metadata
     id="metadata3614"><rdf:RDF><cc:Work
         rdf:about=""><dc:format>image/svg+xml</dc:format><dc:type
           rdf:resource="http://purl.org/dc/dcmitype/StillImage" /><dc:title></dc:title></cc:Work></rdf:RDF></metadata><defs
     id="defs3612" /><sodipodi:namedview
     pagecolor="#ffffff"
     bordercolor="#666666"
     borderopacity="1"
     objecttolerance="10"
     gridtolerance="10"
     guidetolerance="10"
     inkscape:pageopacity="0"
     inkscape:pageshadow="2"
     inkscape:window-width="1230"
     inkscape:window-height="714"
     id="namedview3610"
     showgrid="true"
     inkscape:zoom="1.36"
     inkscape:cx="288.9821"
     inkscape:cy="155.825"
     inkscape:window-x="-1"
     inkscape:window-y="5"
     inkscape:window-maximized="0"
     inkscape:current-layer="Layer_1"><inkscape:grid
       type="xygrid"
       id="grid5315" /></sodipodi:namedview><style
     type="text/css"
     id="style3512">
	.st0{fill:#9D9D9C;}
	.st1{fill:#951932;}
</style><g
     id="g3558"
     transform="matrix(0.93372216,0,0,0.93372216,164.15344,6.8776906)"><path
       class="st1"
       d="m 257.2,121.7 c -0.6,0.3 -1.2,0.5 -1.7,0.7 -0.5,0.2 -1.1,0.5 -1.9,0.7 -0.7,0.2 -1.4,0.4 -2.2,0.5 -0.8,0.1 -1.7,0.2 -2.6,0.2 -1.8,0 -3.4,-0.3 -4.9,-0.8 -1.5,-0.5 -2.7,-1.3 -3.8,-2.4 -1.1,-1.1 -1.9,-2.4 -2.5,-4 -0.6,-1.6 -0.9,-3.5 -0.9,-5.7 0,-2 0.3,-3.9 0.9,-5.5 0.6,-1.6 1.4,-3 2.5,-4.1 1.1,-1.1 2.3,-1.9 3.8,-2.5 1.5,-0.6 3.1,-0.8 5,-0.8 1.3,0 2.7,0.2 4,0.5 1.3,0.3 2.8,0.9 4.4,1.7 l 0,3.9 -0.2,0 c -1.4,-1.1 -2.7,-2 -4.1,-2.5 -1.3,-0.5 -2.8,-0.8 -4.3,-0.8 -1.3,0 -2.4,0.2 -3.4,0.6 -1,0.4 -1.9,1 -2.7,1.9 -0.8,0.8 -1.4,1.9 -1.8,3.1 -0.4,1.3 -0.6,2.7 -0.6,4.4 0,1.7 0.2,3.2 0.7,4.5 0.5,1.3 1.1,2.3 1.8,3.1 0.8,0.8 1.7,1.4 2.7,1.8 1,0.4 2.1,0.6 3.3,0.6 1.6,0 3.1,-0.3 4.4,-0.8 1.4,-0.5 2.7,-1.4 3.9,-2.4 l 0.2,0 0,4.1 z"
       id="path3560"
       inkscape:connector-curvature="0"
       style="fill:#951932" /><path
       class="st1"
       d="m 264.7,123.5 -3.1,0 0,-25.8 3.1,0 0,25.8 z"
       id="path3562"
       inkscape:connector-curvature="0"
       style="fill:#951932" /><path
       class="st1"
       d="m 274.3,101.8 -3.5,0 0,-3.2 3.5,0 0,3.2 z m -0.2,21.7 -3.1,0 0,-18.5 3.1,0 0,18.5 z"
       id="path3564"
       inkscape:connector-curvature="0"
       style="fill:#951932" /><path
       class="st1"
       d="m 307.3,123.5 -3.1,0 0,-10.6 c 0,-0.8 0,-1.6 -0.1,-2.3 -0.1,-0.7 -0.2,-1.3 -0.5,-1.8 -0.3,-0.5 -0.6,-0.8 -1.1,-1.1 -0.5,-0.2 -1.2,-0.4 -2.1,-0.4 -0.9,0 -1.8,0.2 -2.6,0.7 -0.9,0.4 -1.8,1 -2.6,1.7 0,0.3 0.1,0.6 0.1,0.9 0,0.3 0,0.7 0,1 l 0,11.9 -3.1,0 0,-10.6 c 0,-0.8 0,-1.6 -0.1,-2.3 -0.1,-0.7 -0.2,-1.3 -0.5,-1.8 -0.3,-0.5 -0.6,-0.8 -1.1,-1.1 -0.5,-0.2 -1.2,-0.4 -2.1,-0.4 -0.9,0 -1.7,0.2 -2.6,0.6 -0.9,0.4 -1.7,1 -2.6,1.6 l 0,13.8 -3.1,0 0,-18.5 3.1,0 0,2.1 c 1,-0.8 1.9,-1.4 2.9,-1.9 1,-0.5 2,-0.7 3.1,-0.7 1.3,0 2.3,0.3 3.2,0.8 0.9,0.5 1.5,1.3 2,2.2 1.3,-1.1 2.4,-1.8 3.5,-2.3 1,-0.5 2.2,-0.7 3.3,-0.7 2,0 3.5,0.6 4.5,1.9 1,1.2 1.5,3 1.5,5.2 l 0,12.1 z"
       id="path3566"
       inkscape:connector-curvature="0"
       style="fill:#951932" /><path
       class="st1"
       d="m 327.7,123.5 -3.1,0 0,-2 c -0.3,0.2 -0.7,0.5 -1.1,0.8 -0.5,0.3 -0.9,0.6 -1.4,0.8 -0.5,0.3 -1.1,0.5 -1.8,0.6 -0.7,0.2 -1.5,0.3 -2.4,0.3 -1.7,0 -3.1,-0.6 -4.3,-1.7 -1.2,-1.1 -1.7,-2.5 -1.7,-4.2 0,-1.4 0.3,-2.5 0.9,-3.4 0.6,-0.9 1.5,-1.6 2.6,-2.1 1.1,-0.5 2.5,-0.8 4.1,-1 1.6,-0.2 3.3,-0.3 5.1,-0.4 l 0,-0.5 c 0,-0.7 -0.1,-1.3 -0.4,-1.8 -0.2,-0.5 -0.6,-0.8 -1.1,-1.1 -0.4,-0.3 -1,-0.4 -1.6,-0.5 -0.6,-0.1 -1.3,-0.1 -1.9,-0.1 -0.8,0 -1.7,0.1 -2.7,0.3 -1,0.2 -2,0.5 -3.1,0.9 l -0.2,0 0,-3.2 c 0.6,-0.2 1.5,-0.3 2.6,-0.5 1.2,-0.2 2.3,-0.3 3.4,-0.3 1.3,0 2.4,0.1 3.4,0.3 1,0.2 1.8,0.6 2.5,1.1 0.7,0.5 1.2,1.2 1.6,2 0.4,0.8 0.5,1.8 0.5,3 l 0,12.7 z m -3.1,-4.6 0,-5.2 c -1,0.1 -2.1,0.1 -3.4,0.2 -1.3,0.1 -2.3,0.3 -3.1,0.5 -0.9,0.3 -1.6,0.7 -2.2,1.2 -0.6,0.5 -0.8,1.3 -0.8,2.2 0,1.1 0.3,1.9 1,2.4 0.6,0.5 1.6,0.8 2.9,0.8 1.1,0 2.1,-0.2 3,-0.6 1,-0.4 1.8,-0.9 2.6,-1.5 z"
       id="path3568"
       inkscape:connector-curvature="0"
       style="fill:#951932" /><path
       class="st1"
       d="m 343.4,123.3 c -0.6,0.2 -1.2,0.3 -1.9,0.4 -0.7,0.1 -1.3,0.1 -1.9,0.1 -1.9,0 -3.3,-0.5 -4.3,-1.5 -1,-1 -1.5,-2.7 -1.5,-4.9 l 0,-9.9 -2.1,0 0,-2.6 2.1,0 0,-5.3 3.1,0 0,5.3 6.4,0 0,2.6 -6.4,0 0,8.5 c 0,1 0,1.7 0.1,2.3 0,0.5 0.2,1.1 0.5,1.5 0.2,0.4 0.6,0.8 1,1 0.4,0.2 1.1,0.3 2,0.3 0.5,0 1,-0.1 1.6,-0.2 0.6,-0.1 1,-0.3 1.2,-0.4 l 0.2,0 0,2.8 z"
       id="path3570"
       inkscape:connector-curvature="0"
       style="fill:#951932" /><path
       class="st1"
       d="m 362.7,114.5 -13.7,0 c 0,1.1 0.2,2.1 0.5,3 0.3,0.8 0.8,1.5 1.4,2.1 0.6,0.5 1.3,0.9 2.1,1.2 0.8,0.3 1.7,0.4 2.6,0.4 1.3,0 2.5,-0.3 3.8,-0.8 1.3,-0.5 2.2,-1 2.7,-1.5 l 0.2,0 0,3.4 c -1.1,0.4 -2.1,0.8 -3.2,1.1 -1.1,0.3 -2.2,0.4 -3.5,0.4 -3.1,0 -5.5,-0.8 -7.2,-2.5 -1.7,-1.7 -2.6,-4 -2.6,-7.1 0,-3 0.8,-5.4 2.5,-7.2 1.7,-1.8 3.8,-2.7 6.5,-2.7 2.5,0 4.4,0.7 5.8,2.2 1.4,1.5 2,3.5 2,6.2 l 0,1.8 z m -3.1,-2.4 c 0,-1.6 -0.4,-2.9 -1.2,-3.8 -0.8,-0.9 -2.1,-1.3 -3.7,-1.3 -1.7,0 -3,0.5 -4,1.5 -1,1 -1.6,2.2 -1.7,3.7 l 10.6,0 z"
       id="path3572"
       inkscape:connector-curvature="0"
       style="fill:#951932" /><path
       class="st1"
       d="m 257.2,162.5 c -0.6,0.3 -1.2,0.5 -1.7,0.7 -0.5,0.2 -1.1,0.5 -1.9,0.7 -0.7,0.2 -1.4,0.4 -2.2,0.5 -0.8,0.1 -1.7,0.2 -2.6,0.2 -1.8,0 -3.4,-0.3 -4.9,-0.8 -1.5,-0.5 -2.7,-1.3 -3.8,-2.4 -1.1,-1.1 -1.9,-2.4 -2.5,-4 -0.6,-1.6 -0.9,-3.5 -0.9,-5.7 0,-2 0.3,-3.9 0.9,-5.5 0.6,-1.6 1.4,-3 2.5,-4.1 1.1,-1.1 2.3,-1.9 3.8,-2.5 1.5,-0.6 3.1,-0.8 5,-0.8 1.3,0 2.7,0.2 4,0.5 1.3,0.3 2.8,0.9 4.4,1.7 l 0,3.9 -0.2,0 c -1.4,-1.1 -2.7,-2 -4.1,-2.5 -1.3,-0.5 -2.8,-0.8 -4.3,-0.8 -1.3,0 -2.4,0.2 -3.4,0.6 -1,0.4 -1.9,1 -2.7,1.9 -0.8,0.8 -1.4,1.9 -1.8,3.1 -0.4,1.3 -0.6,2.7 -0.6,4.4 0,1.7 0.2,3.2 0.7,4.5 0.5,1.3 1.1,2.3 1.8,3.1 0.8,0.8 1.7,1.4 2.7,1.8 1,0.4 2.1,0.6 3.3,0.6 1.6,0 3.1,-0.3 4.4,-0.8 1.4,-0.5 2.7,-1.4 3.9,-2.4 l 0.2,0 0,4.1 z"
       id="path3574"
       inkscape:connector-curvature="0"
       style="fill:#951932" /><path
       class="st1"
       d="m 277.1,164.3 -3.1,0 0,-10.6 c 0,-0.9 -0.1,-1.7 -0.2,-2.4 -0.1,-0.7 -0.3,-1.3 -0.5,-1.8 -0.3,-0.5 -0.7,-0.8 -1.2,-1 -0.5,-0.2 -1.2,-0.3 -2,-0.3 -0.9,0 -1.7,0.2 -2.7,0.6 -0.9,0.4 -1.8,1 -2.7,1.6 l 0,13.8 -3.1,0 0,-25.8 3.1,0 0,9.3 c 1,-0.8 2,-1.4 3,-1.9 1,-0.5 2.1,-0.7 3.2,-0.7 2,0 3.5,0.6 4.6,1.8 1.1,1.2 1.6,2.9 1.6,5.2 l 0,12.2 z"
       id="path3576"
       inkscape:connector-curvature="0"
       style="fill:#951932" /><path
       class="st1"
       d="m 297.5,164.3 -3.1,0 0,-2 c -0.3,0.2 -0.7,0.5 -1.1,0.8 -0.5,0.3 -0.9,0.6 -1.4,0.8 -0.5,0.3 -1.1,0.5 -1.8,0.6 -0.7,0.2 -1.5,0.3 -2.4,0.3 -1.7,0 -3.1,-0.6 -4.3,-1.7 -1.2,-1.1 -1.7,-2.5 -1.7,-4.2 0,-1.4 0.3,-2.5 0.9,-3.4 0.6,-0.9 1.5,-1.6 2.6,-2 1.1,-0.5 2.5,-0.8 4.1,-1 1.6,-0.2 3.3,-0.3 5.1,-0.4 l 0,-0.5 c 0,-0.7 -0.1,-1.3 -0.4,-1.8 -0.2,-0.5 -0.6,-0.8 -1.1,-1.1 -0.4,-0.3 -1,-0.4 -1.6,-0.5 -0.6,-0.1 -1.3,-0.1 -1.9,-0.1 -0.8,0 -1.7,0.1 -2.7,0.3 -1,0.2 -2,0.5 -3.1,0.9 l -0.2,0 0,-3.2 c 0.6,-0.2 1.5,-0.3 2.6,-0.5 1.2,-0.2 2.3,-0.3 3.4,-0.3 1.3,0 2.4,0.1 3.4,0.3 1,0.2 1.8,0.6 2.5,1.1 0.7,0.5 1.2,1.2 1.6,2 0.4,0.8 0.5,1.8 0.5,3 l 0,12.6 z m -3.1,-4.6 0,-5.2 c -1,0.1 -2.1,0.1 -3.4,0.2 -1.3,0.1 -2.3,0.3 -3.1,0.5 -0.9,0.3 -1.6,0.7 -2.2,1.2 -0.6,0.5 -0.8,1.3 -0.8,2.2 0,1.1 0.3,1.9 1,2.4 0.6,0.5 1.6,0.8 2.9,0.8 1.1,0 2.1,-0.2 3,-0.6 1,-0.4 1.8,-0.9 2.6,-1.5 z"
       id="path3578"
       inkscape:connector-curvature="0"
       style="fill:#951932" /><path
       class="st1"
       d="m 319,164.3 -3.1,0 0,-10.6 c 0,-0.9 -0.1,-1.7 -0.2,-2.4 -0.1,-0.7 -0.3,-1.3 -0.5,-1.8 -0.3,-0.5 -0.7,-0.8 -1.2,-1 -0.5,-0.2 -1.2,-0.3 -2,-0.3 -0.9,0 -1.7,0.2 -2.7,0.6 -0.9,0.4 -1.8,1 -2.7,1.6 l 0,13.8 -3.1,0 0,-18.5 3.1,0 0,2.1 c 1,-0.8 2,-1.4 3,-1.9 1,-0.5 2.1,-0.7 3.2,-0.7 2,0 3.5,0.6 4.6,1.8 1.1,1.2 1.6,2.9 1.6,5.2 l 0,12.1 z"
       id="path3580"
       inkscape:connector-curvature="0"
       style="fill:#951932" /><path
       class="st1"
       d="m 340.1,162.2 c 0,3.1 -0.7,5.5 -2.1,6.9 -1.4,1.5 -3.6,2.2 -6.6,2.2 -1,0 -1.9,-0.1 -2.9,-0.2 -0.9,-0.1 -1.9,-0.3 -2.8,-0.6 l 0,-3.2 0.2,0 c 0.5,0.2 1.3,0.4 2.4,0.7 1.1,0.3 2.2,0.4 3.3,0.4 1.1,0 1.9,-0.1 2.6,-0.4 0.7,-0.3 1.2,-0.6 1.6,-1.1 0.4,-0.4 0.7,-1 0.8,-1.6 0.2,-0.6 0.3,-1.3 0.3,-2 l 0,-1.7 c -0.9,0.8 -1.8,1.3 -2.7,1.7 -0.9,0.4 -2,0.6 -3.3,0.6 -2.2,0 -4,-0.8 -5.3,-2.4 -1.3,-1.6 -2,-3.9 -2,-6.8 0,-1.6 0.2,-3 0.7,-4.1 0.4,-1.2 1.1,-2.2 1.8,-3 0.7,-0.8 1.6,-1.4 2.6,-1.8 1,-0.4 2.1,-0.7 3.1,-0.7 1.1,0 2,0.1 2.7,0.3 0.7,0.2 1.5,0.5 2.3,1 l 0.2,-0.8 2.9,0 0,16.6 z m -3.1,-3 0,-10.1 c -0.8,-0.4 -1.6,-0.6 -2.3,-0.8 -0.7,-0.2 -1.4,-0.2 -2.1,-0.2 -1.7,0 -3.1,0.6 -4.1,1.7 -1,1.2 -1.5,2.8 -1.5,5 0,2.1 0.4,3.7 1.1,4.7 0.7,1.1 1.9,1.6 3.6,1.6 0.9,0 1.8,-0.2 2.7,-0.5 1,-0.4 1.8,-0.8 2.6,-1.4 z"
       id="path3582"
       inkscape:connector-curvature="0"
       style="fill:#951932" /><path
       class="st1"
       d="m 361.7,155.3 -13.7,0 c 0,1.1 0.2,2.1 0.5,3 0.3,0.8 0.8,1.5 1.4,2.1 0.6,0.5 1.3,0.9 2,1.2 0.8,0.3 1.7,0.4 2.6,0.4 1.3,0 2.5,-0.3 3.8,-0.8 1.3,-0.5 2.2,-1 2.7,-1.5 l 0.2,0 0,3.4 c -1.1,0.4 -2.1,0.8 -3.2,1.1 -1.1,0.3 -2.2,0.4 -3.5,0.4 -3.1,0 -5.5,-0.8 -7.2,-2.5 -1.7,-1.7 -2.6,-4 -2.6,-7.1 0,-3 0.8,-5.4 2.5,-7.2 1.7,-1.8 3.8,-2.7 6.5,-2.7 2.5,0 4.4,0.7 5.8,2.2 1.4,1.5 2,3.5 2,6.2 l 0,1.8 z m -3,-2.4 c 0,-1.6 -0.4,-2.9 -1.2,-3.8 -0.8,-0.9 -2,-1.3 -3.7,-1.3 -1.7,0 -3,0.5 -4,1.5 -1,1 -1.6,2.2 -1.7,3.7 l 10.6,0 z"
       id="path3584"
       inkscape:connector-curvature="0"
       style="fill:#951932" /><path
       class="st1"
       d="m 396.6,157.2 c 0,1 -0.2,1.9 -0.7,2.9 -0.4,0.9 -1.1,1.7 -1.9,2.4 -0.9,0.7 -1.9,1.3 -3.1,1.7 -1.2,0.4 -2.6,0.6 -4.3,0.6 -1.8,0 -3.4,-0.2 -4.8,-0.5 -1.4,-0.3 -2.9,-0.8 -4.3,-1.5 l 0,-4.1 0.2,0 c 1.3,1 2.7,1.8 4.3,2.4 1.6,0.6 3.2,0.8 4.6,0.8 2,0 3.6,-0.4 4.8,-1.1 1.1,-0.8 1.7,-1.8 1.7,-3.1 0,-1.1 -0.3,-1.9 -0.8,-2.4 -0.5,-0.5 -1.4,-0.9 -2.4,-1.2 -0.8,-0.2 -1.7,-0.4 -2.7,-0.5 -1,-0.1 -2,-0.3 -3.1,-0.5 -2.2,-0.5 -3.8,-1.3 -4.9,-2.4 -1.1,-1.1 -1.6,-2.6 -1.6,-4.4 0,-2.1 0.9,-3.8 2.6,-5.1 1.7,-1.3 4,-2 6.7,-2 1.7,0 3.3,0.2 4.8,0.5 1.5,0.3 2.7,0.7 3.9,1.2 l 0,3.9 -0.2,0 c -0.9,-0.8 -2.2,-1.5 -3.7,-2 -1.5,-0.5 -3.1,-0.8 -4.7,-0.8 -1.8,0 -3.2,0.4 -4.2,1.1 -1.1,0.7 -1.6,1.7 -1.6,2.8 0,1 0.3,1.8 0.8,2.4 0.5,0.6 1.5,1 2.8,1.3 0.7,0.2 1.7,0.3 3,0.6 1.3,0.2 2.4,0.4 3.3,0.7 1.8,0.5 3.2,1.2 4.2,2.2 0.9,1 1.3,2.4 1.3,4.1 z"
       id="path3586"
       inkscape:connector-curvature="0"
       style="fill:#951932" /><path
       class="st1"
       d="m 417.2,155.3 -13.7,0 c 0,1.1 0.2,2.1 0.5,3 0.3,0.8 0.8,1.5 1.4,2.1 0.6,0.5 1.3,0.9 2,1.2 0.8,0.3 1.7,0.4 2.6,0.4 1.3,0 2.5,-0.3 3.8,-0.8 1.3,-0.5 2.2,-1 2.7,-1.5 l 0.2,0 0,3.4 c -1.1,0.4 -2.1,0.8 -3.2,1.1 -1.1,0.3 -2.2,0.4 -3.5,0.4 -3.1,0 -5.5,-0.8 -7.2,-2.5 -1.7,-1.7 -2.6,-4 -2.6,-7.1 0,-3 0.8,-5.4 2.5,-7.2 1.7,-1.8 3.8,-2.7 6.5,-2.7 2.5,0 4.4,0.7 5.8,2.2 1.4,1.5 2,3.5 2,6.2 l 0,1.8 z m -3,-2.4 c 0,-1.6 -0.4,-2.9 -1.2,-3.8 -0.8,-0.9 -2,-1.3 -3.7,-1.3 -1.7,0 -3,0.5 -4,1.5 -1,1 -1.6,2.2 -1.7,3.7 l 10.6,0 z"
       id="path3588"
       inkscape:connector-curvature="0"
       style="fill:#951932" /><path
       class="st1"
       d="m 433.5,149.1 -0.2,0 c -0.5,-0.1 -0.9,-0.2 -1.4,-0.2 -0.4,-0.1 -1,-0.1 -1.6,-0.1 -1,0 -1.9,0.2 -2.8,0.6 -0.9,0.4 -1.8,1 -2.6,1.7 l 0,13.2 -3.1,0 0,-18.5 3.1,0 0,2.7 c 1.2,-1 2.3,-1.7 3.3,-2.1 0.9,-0.4 1.9,-0.6 2.9,-0.6 0.5,0 0.9,0 1.2,0 0.2,0 0.6,0.1 1.1,0.2 l 0,3.1 z"
       id="path3590"
       inkscape:connector-curvature="0"
       style="fill:#951932" /><path
       class="st1"
       d="m 452.5,145.7 -7.5,18.5 -3.1,0 -7.5,-18.5 3.4,0 5.7,14.8 5.7,-14.8 3.3,0 z"
       id="path3592"
       inkscape:connector-curvature="0"
       style="fill:#951932" /><path
       class="st1"
       d="m 459.9,142.6 -3.5,0 0,-3.2 3.5,0 0,3.2 z m -0.2,21.7 -3.1,0 0,-18.5 3.1,0 0,18.5 z"
       id="path3594"
       inkscape:connector-curvature="0"
       style="fill:#951932" /><path
       class="st1"
       d="m 479.6,163.1 c -1,0.5 -2,0.9 -3,1.2 -0.9,0.3 -1.9,0.4 -3,0.4 -1.3,0 -2.6,-0.2 -3.7,-0.6 -1.1,-0.4 -2.1,-1 -2.9,-1.8 -0.8,-0.8 -1.4,-1.8 -1.9,-3 -0.4,-1.2 -0.7,-2.6 -0.7,-4.3 0,-3 0.8,-5.4 2.5,-7.1 1.7,-1.7 3.9,-2.6 6.6,-2.6 1.1,0 2.1,0.1 3.1,0.4 1,0.3 2,0.7 2.8,1.1 l 0,3.5 -0.2,0 c -1,-0.7 -1.9,-1.3 -2.9,-1.7 -1,-0.4 -2,-0.6 -3,-0.6 -1.8,0 -3.2,0.6 -4.2,1.8 -1,1.2 -1.5,2.9 -1.5,5.2 0,2.2 0.5,4 1.5,5.2 1,1.2 2.4,1.8 4.2,1.8 0.6,0 1.3,-0.1 1.9,-0.2 0.7,-0.2 1.2,-0.4 1.8,-0.6 0.5,-0.2 0.9,-0.5 1.3,-0.7 0.4,-0.3 0.7,-0.5 0.9,-0.7 l 0.2,0 0,3.3 z"
       id="path3596"
       inkscape:connector-curvature="0"
       style="fill:#951932" /><path
       class="st1"
       d="m 499.1,155.3 -13.7,0 c 0,1.1 0.2,2.1 0.5,3 0.3,0.8 0.8,1.5 1.4,2.1 0.6,0.5 1.3,0.9 2.1,1.2 0.8,0.3 1.7,0.4 2.6,0.4 1.3,0 2.5,-0.3 3.8,-0.8 1.3,-0.5 2.2,-1 2.7,-1.5 l 0.2,0 0,3.4 c -1.1,0.4 -2.1,0.8 -3.2,1.1 -1.1,0.3 -2.2,0.4 -3.5,0.4 -3.1,0 -5.5,-0.8 -7.2,-2.5 -1.7,-1.7 -2.6,-4 -2.6,-7.1 0,-3 0.8,-5.4 2.5,-7.2 1.7,-1.8 3.8,-2.7 6.5,-2.7 2.5,0 4.4,0.7 5.8,2.2 1.4,1.5 2,3.5 2,6.2 l 0,1.8 z m -3,-2.4 c 0,-1.6 -0.4,-2.9 -1.2,-3.8 -0.8,-0.9 -2.1,-1.3 -3.7,-1.3 -1.7,0 -3,0.5 -4,1.5 -1,1 -1.6,2.2 -1.7,3.7 l 10.6,0 z"
       id="path3598"
       inkscape:connector-curvature="0"
       style="fill:#951932" /></g><g
     id="g3600"
     transform="matrix(0.4680662,0,0,0.4680662,282.43177,62.731692)"><path
       class="st1"
       d="m 27.2,133.2 c 0,54.1 43.4,97.9 97,97.9 15.5,0 29.9,-3.6 42.9,-10.1 0,0 0.2,-0.1 0.1,-0.4 -0.1,-0.2 -0.4,-0.1 -0.4,-0.1 -10,4 -20.6,6 -32,6 -48.8,0 -88.3,-40 -88.3,-89.4 0,-49.4 39.5,-89.4 88.3,-89.4 34.6,0 64.5,20 79,49.4 0,0 0.1,0.3 0.3,0.2 0.2,-0.1 0.1,-0.3 0.1,-0.3 C 200,60.8 165,35.4 124.1,35.4 70.6,35.3 27.2,79.1 27.2,133.2"
       id="path3602"
       inkscape:connector-curvature="0"
       style="fill:#951932" /><path
       class="st1"
       d="m 151.6,156.9 0,-40.3 6.6,0 0,40.3 c 3.4,1.3 5.8,4.6 5.8,8.4 0,5 -4,9 -9,9 -5,0 -9,-4 -9,-9 -0.1,-3.9 2.3,-7.1 5.6,-8.4"
       id="path3604"
       inkscape:connector-curvature="0"
       style="fill:#951932" /><path
       class="st1"
       d="m 167,117.3 c 0,-0.7 -0.1,-1.6 -0.2,-2.4 -0.3,-1.6 -1,-3.2 -1.9,-4.5 -1.8,-2.7 -4.6,-4.4 -7.6,-5 -3,-0.6 -6,0.1 -8.4,1.5 -2.4,1.5 -4.1,3.7 -4.9,6.2 -0.4,1.2 -0.6,2.5 -0.6,3.7 l 0.1,3 c 0.5,15.6 1.1,25.3 1.8,25.3 0.7,0 1.4,-12.5 1.9,-28.1 0,-4.1 3.4,-7.5 7.5,-7.5 4.1,0 7.5,3.4 7.5,7.5 l 0,36.2 c 0.5,0.4 1,0.9 1.6,1.3 0.3,0.3 0.5,0.4 0.7,0.6 0.4,0.4 0.8,0.8 1.2,1.3 0.7,0.9 1.3,1.9 1.8,2.9 0.9,2.1 1.3,4.4 1.1,6.6 -0.4,4.4 -3,8.3 -6.5,10.5 -3.5,2.2 -7.7,2.5 -11.2,1.5 -3.5,-1 -6.4,-3.4 -8,-6.1 -1.7,-2.7 -2.3,-5.7 -2.2,-8.3 0.1,-2.6 0.8,-4.8 1.6,-6.5 0.8,-1.7 1.7,-2.9 2.4,-3.7 0.6,-0.8 1,-1.2 0.9,-1.4 -0.1,-0.1 -0.6,0.1 -1.5,0.7 -0.9,0.6 -2.1,1.7 -3.3,3.4 -1.2,1.7 -2.3,4.2 -2.7,7.2 -0.4,3 0.1,6.7 2,10.2 1.9,3.5 5.2,6.7 9.8,8.2 4.5,1.6 10,1.3 14.8,-1.4 4.7,-2.7 8.4,-7.9 9,-13.9 0.3,-3 -0.1,-6.1 -1.3,-9 -0.6,-1.4 -1.4,-2.8 -2.4,-4.1 -0.5,-0.6 -1,-1.2 -1.6,-1.8 -0.3,-0.3 -0.6,-0.6 -0.8,-0.8 0,0 0,0 0,0 L 167,117.3 Z"
       id="path3606"
       inkscape:connector-curvature="0"
       style="fill:#951932" /><path
       class="st1"
       d="m 65.1,132.1 c 0,0 3.2,-10.8 15.6,-13.4 C 81.4,103.9 94,92 109.5,92 c 5.7,0 11.1,1.6 15.5,4.4 5.9,-10.2 17.2,-17 30.3,-17 19.1,0 34.5,14.7 34.5,32.9 0,2 -0.2,4 -0.6,6 7,0.4 11.6,4 11.6,4 3.7,2.6 5.8,5.9 7,8.7 1.2,2.8 1.4,5.2 1.4,6.8 0,1.6 -0.3,2.4 -0.5,2.4 -0.2,0 -0.4,-0.8 -0.8,-2.2 -0.4,-1.4 -1,-3.5 -2.3,-5.9 -1.4,-2.3 -3.5,-4.9 -6.7,-6.8 l 0,0 c -2.6,-1.7 -6.9,-2.7 -11.8,-2.7 -1,0 -2,0.1 -3,0.1 0.5,-2.1 0.8,-4.5 0.8,-6.8 0,-16.7 -13.3,-30.3 -29.7,-30.3 -12.9,0 -24.1,8.3 -28.2,20.1 -5.2,-6.1 -14.1,-9.2 -23.1,-7.2 -12,2.6 -19.9,13.2 -18.6,24.1 -12.7,-0.5 -18,10.5 -18,10.5 -1.1,2.1 -1.6,4 -1.9,5.2 -0.3,1.3 -0.5,2 -0.7,2 -0.2,0 -0.4,-0.7 -0.5,-2.1 -0.1,-1.4 0,-3.5 0.9,-6.1"
       id="path3608"
       inkscape:connector-curvature="0"
       style="fill:#951932" /></g><style
     id="style4854"
     type="text/css">
	.st0{clip-path:url(#SVGID_2_);fill:url(#SVGID_3_);}
	.st1{clip-path:url(#SVGID_5_);fill:#FFCD0D;}
	.st2{clip-path:url(#SVGID_7_);fill:url(#SVGID_8_);}
	.st3{clip-path:url(#SVGID_10_);fill:url(#SVGID_11_);}
	.st4{clip-path:url(#SVGID_13_);fill:url(#SVGID_14_);}
	.st5{clip-path:url(#SVGID_16_);fill:url(#SVGID_17_);}
	.st6{clip-path:url(#SVGID_19_);fill:url(#SVGID_20_);}
	.st7{clip-path:url(#SVGID_22_);fill:url(#SVGID_23_);}
	.st8{clip-path:url(#SVGID_25_);fill:url(#SVGID_26_);}
	.st9{clip-path:url(#SVGID_28_);fill:url(#SVGID_29_);}
	.st10{clip-path:url(#SVGID_31_);fill:url(#SVGID_32_);}
	.st11{fill:#285D97;}
</style><g
     id="g4856"
     transform="matrix(0.46635534,0,0,0.46635534,-53.749723,-13.1677)"><defs
       id="defs4858"><path
         inkscape:connector-curvature="0"
         id="SVGID_1_"
         d="m 137.5,297.6 c 0,53.9 43.2,97.5 96.6,97.5 15.4,0 29.8,-3.6 42.7,-10.1 0,0 0.2,-0.1 0.1,-0.4 -0.1,-0.2 -0.4,-0.1 -0.4,-0.1 -9.9,3.9 -20.5,6 -31.9,6 -48.6,0 -87.9,-39.9 -87.9,-89.1 0,-49.2 39.4,-89.1 87.9,-89.1 34.5,0 64.3,19.9 78.7,49.2 0,0 0.1,0.3 0.3,0.2 0.2,-0.1 0.1,-0.4 0.1,-0.4 -14.2,-36.1 -49,-61.4 -89.8,-61.4 -53.2,0.2 -96.4,43.9 -96.4,97.7" /></defs><clipPath
       id="SVGID_2_"><use
         height="100%"
         width="100%"
         y="0"
         x="0"
         xlink:href="#SVGID_1_"
         style="overflow:visible"
         id="use4862" /></clipPath><linearGradient
       id="SVGID_3_"
       gradientUnits="userSpaceOnUse"
       x1="0.002081109"
       y1="595.2774"
       x2="1.0021"
       y2="595.2774"
       gradientTransform="matrix(0,-195.0859,-195.0859,0,116360.96,395.5871)"><stop
         offset="0"
         style="stop-color:#226295"
         id="stop4865" /><stop
         offset="1"
         style="stop-color:#78AEDF"
         id="stop4867" /></linearGradient><rect
       style="fill:url(#SVGID_3_)"
       x="137.5"
       y="200.10001"
       class="st0"
       width="186.5"
       height="195.10001"
       id="rect4869"
       clip-path="url(#SVGID_2_)" /></g><g
     id="g4871"
     transform="matrix(0.46635534,0,0,0.46635534,-53.749723,-13.1677)"><defs
       id="defs4873"><rect
         y="0"
         x="0"
         id="SVGID_4_"
         width="841.90002"
         height="595.29999" /></defs><clipPath
       id="SVGID_5_"><use
         height="100%"
         width="100%"
         y="0"
         x="0"
         xlink:href="#SVGID_4_"
         style="overflow:visible"
         id="use4877" /></clipPath><path
       style="fill:#ffcd0d"
       inkscape:connector-curvature="0"
       class="st1"
       d="m 507.8,316.6 c -0.9,-2.2 -2.2,-4.1 -3.8,-5.8 -1.6,-1.6 -3.5,-2.9 -5.6,-3.9 -2.1,-0.9 -4.4,-1.4 -6.8,-1.4 -2.4,0 -4.6,0.5 -6.8,1.5 -2.1,1 -4,2.4 -5.6,4 -0.8,0.9 -1.6,1.8 -2.2,2.8 0,0.1 0,0.2 0,0.4 0,12 9.8,21.8 21.8,21.8 3.7,0 7.3,-0.9 10.3,-2.6 l 0,-9.9 c 0.1,-2.4 -0.4,-4.8 -1.3,-6.9"
       id="path4879"
       clip-path="url(#SVGID_5_)" /></g><g
     id="g4881"
     transform="matrix(0.46635534,0,0,0.46635534,-53.749723,-13.1677)"><defs
       id="defs4883"><path
         inkscape:connector-curvature="0"
         id="SVGID_6_"
         d="m 246.3,351.5 c -2.9,-1.3 -5.4,-3 -7.5,-5.2 -2.1,-2.2 -3.8,-4.8 -5,-7.7 -1.2,-2.9 -1.8,-6 -1.8,-9.3 0,-3.3 0.6,-6.4 1.8,-9.3 1.2,-2.9 2.9,-5.5 5,-7.7 2.1,-2.2 4.6,-3.9 7.5,-5.2 2.9,-1.3 5.9,-1.9 9.1,-1.9 3.2,0 6.2,0.6 9.1,1.9 2.9,1.3 5.4,3 7.5,5.2 2.1,2.2 3.8,4.8 5,7.7 1.2,2.9 1.8,6 1.8,9.3 0,3.3 -0.6,6.4 -1.8,9.3 -1.2,2.9 -2.9,5.5 -5,7.7 -2.1,2.2 -4.6,3.9 -7.5,5.2 -2.9,1.3 -5.9,1.9 -9.1,1.9 -3.2,0 -6.2,-0.6 -9.1,-1.9 m -3.1,-51.9 c -3.8,1.7 -7.2,4 -10,6.9 -2.9,2.9 -5.1,6.4 -6.8,10.3 -1.6,3.9 -2.5,8.1 -2.5,12.6 0,4.5 0.8,8.6 2.5,12.6 1.6,3.9 3.9,7.3 6.8,10.3 2.9,2.9 6.2,5.2 10,6.9 3.8,1.7 7.9,2.5 12.3,2.5 4.4,0 8.4,-0.8 12.3,-2.5 3.8,-1.7 7.2,-4 10,-6.9 2.9,-2.9 5.1,-6.4 6.8,-10.3 1.6,-3.9 2.5,-8.1 2.5,-12.6 0,-4.5 -0.8,-8.6 -2.5,-12.6 -1.6,-3.9 -3.9,-7.3 -6.8,-10.3 -2.9,-2.9 -6.2,-5.2 -10,-6.9 -3.8,-1.7 -7.9,-2.5 -12.3,-2.5 -4.4,0 -8.5,0.8 -12.3,2.5" /></defs><clipPath
       id="SVGID_7_"><use
         height="100%"
         width="100%"
         y="0"
         x="0"
         xlink:href="#SVGID_6_"
         style="overflow:visible"
         id="use4887" /></clipPath><linearGradient
       id="SVGID_8_"
       gradientUnits="userSpaceOnUse"
       x1="0.00203372"
       y1="595.27478"
       x2="1.002"
       y2="595.27478"
       gradientTransform="matrix(0,-64.5586,-64.5586,0,38685.551,361.7587)"><stop
         offset="0"
         style="stop-color:#19294B"
         id="stop4890" /><stop
         offset="1"
         style="stop-color:#284491"
         id="stop4892" /></linearGradient><rect
       style="fill:url(#SVGID_8_)"
       x="223.89999"
       y="297.10001"
       class="st2"
       width="63"
       height="64.599998"
       id="rect4894"
       clip-path="url(#SVGID_7_)" /></g><g
     id="g4896"
     transform="matrix(0.46635534,0,0,0.46635534,-53.749723,-13.1677)"><defs
       id="defs4898"><path
         inkscape:connector-curvature="0"
         id="SVGID_9_"
         d="m 315,351.7 c -2.9,-1.3 -5.4,-3 -7.5,-5.2 -2.1,-2.2 -3.8,-4.8 -5,-7.7 -1.2,-2.9 -1.8,-6 -1.8,-9.3 0,-3.3 0.6,-6.4 1.8,-9.3 1.2,-2.9 2.9,-5.5 5,-7.7 2.1,-2.2 4.6,-3.9 7.5,-5.2 2.9,-1.3 5.9,-1.9 9.1,-1.9 3.2,0 6.2,0.6 9.1,1.9 2.9,1.3 5.4,3 7.5,5.2 2.1,2.2 3.8,4.8 5,7.7 1.2,2.9 1.8,6 1.8,9.3 0,3.3 -0.6,6.4 -1.8,9.3 -1.2,2.9 -2.9,5.5 -5,7.7 -2.1,2.2 -4.6,3.9 -7.5,5.2 -2.9,1.3 -5.9,1.9 -9.1,1.9 -3.2,-0.1 -6.2,-0.7 -9.1,-1.9 m -3.1,-52 c -3.8,1.7 -7.2,4 -10,6.9 -2.9,2.9 -5.1,6.4 -6.8,10.3 -1.6,3.9 -2.5,8.1 -2.5,12.6 l 0,53 8,0 0,-33.1 c 2.1,3.5 5.5,6.5 10.1,8.9 4.6,2.4 9,3.6 13.4,3.6 4.4,0 8.4,-0.8 12.3,-2.5 3.8,-1.7 7.2,-4 10,-6.9 2.9,-2.9 5.1,-6.4 6.8,-10.3 1.6,-3.9 2.5,-8.1 2.5,-12.6 0,-4.5 -0.8,-8.6 -2.5,-12.6 -1.6,-3.9 -3.9,-7.3 -6.8,-10.3 -2.9,-2.9 -6.2,-5.2 -10,-6.9 -3.8,-1.7 -7.9,-2.5 -12.3,-2.5 -4.3,-0.1 -8.4,0.7 -12.2,2.4" /></defs><clipPath
       id="SVGID_10_"><use
         height="100%"
         width="100%"
         y="0"
         x="0"
         xlink:href="#SVGID_9_"
         style="overflow:visible"
         id="use4902" /></clipPath><linearGradient
       id="SVGID_11_"
       gradientUnits="userSpaceOnUse"
       x1="0.0040094149"
       y1="595.27979"
       x2="1.0039999"
       y2="595.27979"
       gradientTransform="matrix(0,-85.248,-85.248,0,51070.555,382.7759)"><stop
         offset="0"
         style="stop-color:#19294B"
         id="stop4905" /><stop
         offset="1"
         style="stop-color:#284491"
         id="stop4907" /></linearGradient><rect
       style="fill:url(#SVGID_11_)"
       x="292.60001"
       y="297.20001"
       class="st3"
       width="63"
       height="85.199997"
       id="rect4909"
       clip-path="url(#SVGID_10_)" /></g><g
     id="g4911"
     transform="matrix(0.46635534,0,0,0.46635534,-53.749723,-13.1677)"><defs
       id="defs4913"><path
         inkscape:connector-curvature="0"
         id="SVGID_12_"
         d="m 375.4,312.3 c 2.1,-2.2 4.6,-3.9 7.5,-5.2 2.9,-1.3 5.9,-1.9 9.1,-1.9 3.2,0 6.2,0.6 9.1,1.9 2.9,1.3 5.4,3 7.5,5.2 1.8,1.9 3.2,4 4.4,6.3 l -42,0 c 1.1,-2.3 2.6,-4.4 4.4,-6.3 m 4.3,-12.7 c -3.8,1.7 -7.2,4 -10,6.9 -2.9,2.9 -5.1,6.4 -6.8,10.3 -1.6,3.9 -2.5,8.1 -2.5,12.6 0,4.5 0.8,8.6 2.5,12.6 1.6,3.9 3.9,7.3 6.8,10.3 2.9,2.9 6.2,5.2 10,6.9 3.8,1.7 7.9,2.5 12.3,2.5 4.4,0 8.4,-0.8 12.3,-2.5 3.8,-1.7 7.2,-4 10,-6.9 2.9,-2.9 5.1,-6.4 6.7,-10.3 l 0.3,-0.9 -8.8,0 c -1.1,2 -2.4,3.8 -3.9,5.4 -2.1,2.2 -4.6,3.9 -7.5,5.2 -2.9,1.3 -5.9,1.9 -9.1,1.9 -3.2,0 -6.2,-0.6 -9.1,-1.9 -2.9,-1.3 -5.4,-3 -7.5,-5.2 -2.1,-2.2 -3.8,-4.8 -5,-7.7 -1.2,-2.9 -1.8,-6 -1.8,-9.3 0,-0.8 0,-1.6 0.1,-2.5 l 54.8,0 c -0.2,-3.5 -1,-6.9 -2.4,-10.1 -1.6,-3.9 -3.8,-7.3 -6.7,-10.3 -2.9,-2.9 -6.2,-5.2 -10,-6.9 -3.8,-1.7 -7.9,-2.5 -12.3,-2.5 -4.5,-0.1 -8.5,0.7 -12.4,2.4" /></defs><clipPath
       id="SVGID_13_"><use
         height="100%"
         width="100%"
         y="0"
         x="0"
         xlink:href="#SVGID_12_"
         style="overflow:visible"
         id="use4917" /></clipPath><linearGradient
       id="SVGID_14_"
       gradientUnits="userSpaceOnUse"
       x1="0.00203372"
       y1="595.27478"
       x2="1.002"
       y2="595.27478"
       gradientTransform="matrix(0,-64.5586,-64.5586,0,38822.051,361.7587)"><stop
         offset="0"
         style="stop-color:#19294B"
         id="stop4920" /><stop
         offset="1"
         style="stop-color:#284491"
         id="stop4922" /></linearGradient><rect
       style="fill:url(#SVGID_14_)"
       x="360.5"
       y="297.10001"
       class="st4"
       width="62.900002"
       height="64.599998"
       id="rect4924"
       clip-path="url(#SVGID_13_)" /></g><g
     id="g4926"
     transform="matrix(0.46635534,0,0,0.46635534,-53.749723,-13.1677)"><defs
       id="defs4928"><path
         inkscape:connector-curvature="0"
         id="SVGID_15_"
         d="m 448.6,302.4 c -3.8,1.7 -7.2,4 -10.1,7 -0.5,0.5 -0.9,1.1 -1.3,1.9 l 0,-11.2 -7.9,0 0.1,58.7 7.9,0 0,-26.6 c 0,-3.3 0.6,-6.4 1.8,-9.3 1.2,-2.9 2.9,-5.5 5,-7.7 2.1,-2.2 4.6,-3.9 7.5,-5.2 2.9,-1.3 5.9,-1.9 9.1,-1.9 l 0,-8.2 c -4.2,0 -8.3,0.8 -12.1,2.5" /></defs><clipPath
       id="SVGID_16_"><use
         height="100%"
         width="100%"
         y="0"
         x="0"
         xlink:href="#SVGID_15_"
         style="overflow:visible"
         id="use4932" /></clipPath><linearGradient
       id="SVGID_17_"
       gradientUnits="userSpaceOnUse"
       x1="0.00075169158"
       y1="595.27258"
       x2="1.0007"
       y2="595.27258"
       gradientTransform="matrix(0,-58.9258,-58.9258,0,35522.035,358.8553)"><stop
         offset="0"
         style="stop-color:#19294B"
         id="stop4935" /><stop
         offset="1"
         style="stop-color:#284491"
         id="stop4937" /></linearGradient><rect
       style="fill:url(#SVGID_17_)"
       x="429.39999"
       y="299.89999"
       class="st5"
       width="31.5"
       height="58.900002"
       id="rect4939"
       clip-path="url(#SVGID_16_)" /></g><g
     id="g4941"
     transform="matrix(0.46635534,0,0,0.46635534,-53.749723,-13.1677)"><defs
       id="defs4943"><path
         inkscape:connector-curvature="0"
         id="SVGID_18_"
         d="m 486.4,297.7 c -1.8,0.4 -3.4,1 -5,1.7 -1.6,0.7 -3,1.6 -4.3,2.7 -1.3,1.1 -2.3,2.2 -3.1,3.5 l 0,-5.4 -8,0 0,58.7 8.1,0 -0.1,-35.2 c 0,-2.3 0.5,-4.5 1.4,-6.7 1,-2.2 2.2,-4.1 3.8,-5.8 1.6,-1.7 3.5,-3 5.6,-4 2.1,-1 4.4,-1.5 6.8,-1.5 2.4,0 4.6,0.5 6.8,1.4 2.1,0.9 4,2.2 5.6,3.9 1.6,1.6 2.9,3.6 3.8,5.8 0.9,2.2 1.4,4.5 1.4,7 l 0.1,35.2 8.2,0 -0.1,-35.2 c 0,-3.6 -0.7,-7 -2.1,-10.3 -1.4,-3.2 -3.2,-6.1 -5.6,-8.5 -2.3,-2.4 -5.1,-4.3 -8.2,-5.7 -3.1,-1.4 -6.5,-2.1 -10,-2.1 -1.6,-0.1 -3.4,0.1 -5.1,0.5" /></defs><clipPath
       id="SVGID_19_"><use
         height="100%"
         width="100%"
         y="0"
         x="0"
         xlink:href="#SVGID_18_"
         style="overflow:visible"
         id="use4947" /></clipPath><linearGradient
       id="SVGID_20_"
       gradientUnits="userSpaceOnUse"
       x1="0.001157944"
       y1="595.27338"
       x2="1.0012"
       y2="595.27338"
       gradientTransform="matrix(0,-61.7422,-61.7422,0,37245.25,358.8825)"><stop
         offset="0"
         style="stop-color:#19294B"
         id="stop4950" /><stop
         offset="1"
         style="stop-color:#284491"
         id="stop4952" /></linearGradient><rect
       style="fill:url(#SVGID_20_)"
       x="466"
       y="297.10001"
       class="st6"
       width="51.5"
       height="61.700001"
       id="rect4954"
       clip-path="url(#SVGID_19_)" /></g><g
     id="g4956"
     transform="matrix(0.46635534,0,0,0.46635534,-53.749723,-13.1677)"><defs
       id="defs4958"><path
         inkscape:connector-curvature="0"
         id="SVGID_21_"
         d="m 525.7,358.8 8,0 0,-58.7 -8,0 0,58.7 z m 0.7,-80.7 c -0.9,0.9 -1.4,2.1 -1.4,3.5 0,1.4 0.5,2.6 1.4,3.5 0.9,0.9 2.1,1.4 3.4,1.4 1.4,0 2.5,-0.5 3.4,-1.4 0.9,-0.9 1.4,-2.1 1.4,-3.5 0,-1.4 -0.5,-2.6 -1.4,-3.5 -0.9,-0.9 -2.1,-1.4 -3.4,-1.4 -1.3,-0.1 -2.5,0.4 -3.4,1.4" /></defs><clipPath
       id="SVGID_22_"><use
         height="100%"
         width="100%"
         y="0"
         x="0"
         xlink:href="#SVGID_21_"
         style="overflow:visible"
         id="use4962" /></clipPath><linearGradient
       id="SVGID_23_"
       gradientUnits="userSpaceOnUse"
       x1="0.00098451949"
       y1="595.27728"
       x2="1.001"
       y2="595.27728"
       gradientTransform="matrix(0,-82.166,-82.166,0,49441.391,358.8919)"><stop
         offset="0"
         style="stop-color:#19294B"
         id="stop4965" /><stop
         offset="1"
         style="stop-color:#284491"
         id="stop4967" /></linearGradient><rect
       style="fill:url(#SVGID_23_)"
       x="525"
       y="276.60001"
       class="st7"
       width="9.6000004"
       height="82.199997"
       id="rect4969"
       clip-path="url(#SVGID_22_)" /></g><g
     id="g4971"
     transform="matrix(0.46635534,0,0,0.46635534,-53.749723,-13.1677)"><defs
       id="defs4973"><path
         inkscape:connector-curvature="0"
         id="SVGID_24_"
         d="m 559.3,299.6 c -3.8,1.7 -7.2,4 -10,6.9 -2.9,2.9 -5.1,6.4 -6.8,10.3 -1.6,3.9 -2.5,8.1 -2.5,12.6 0,4.5 0.8,8.6 2.5,12.6 1.6,3.9 3.9,7.3 6.8,10.3 2.9,2.9 6.2,5.2 10,6.9 3.8,1.7 7.9,2.5 12.3,2.5 4.4,0 8.4,-0.8 12.3,-2.5 3.8,-1.7 7.2,-4 10,-6.9 2.9,-2.9 5.1,-6.4 6.7,-10.3 l 0.3,-0.9 -8.8,0 c -1.1,2 -2.4,3.8 -3.9,5.4 -2.1,2.2 -4.6,3.9 -7.5,5.2 -2.9,1.3 -5.9,1.9 -9.1,1.9 -3.2,0 -6.2,-0.6 -9.1,-1.9 -2.9,-1.3 -5.4,-3 -7.5,-5.2 -2.1,-2.2 -3.8,-4.8 -5,-7.7 -1.2,-2.9 -1.8,-6 -1.8,-9.3 0,-3.3 0.6,-6.4 1.8,-9.3 1.2,-2.9 2.9,-5.5 5,-7.7 2.1,-2.2 4.6,-3.9 7.5,-5.2 2.9,-1.3 5.9,-1.9 9.1,-1.9 3.2,0 6.2,0.6 9.1,1.9 2.9,1.3 5.4,3 7.5,5.2 1.5,1.6 2.8,3.3 3.8,5.3 l 8.9,0 -0.3,-0.8 c -1.6,-3.9 -3.8,-7.3 -6.7,-10.3 -2.9,-2.9 -6.2,-5.2 -10,-6.9 -3.8,-1.7 -7.9,-2.5 -12.3,-2.5 -4.4,-0.2 -8.5,0.6 -12.3,2.3" /></defs><clipPath
       id="SVGID_25_"><use
         height="100%"
         width="100%"
         y="0"
         x="0"
         xlink:href="#SVGID_24_"
         style="overflow:visible"
         id="use4977" /></clipPath><linearGradient
       id="SVGID_26_"
       gradientUnits="userSpaceOnUse"
       x1="0.00203372"
       y1="595.27448"
       x2="1.002"
       y2="595.27448"
       gradientTransform="matrix(0,-64.5586,-64.5586,0,39000.551,361.7587)"><stop
         offset="0"
         style="stop-color:#19294B"
         id="stop4980" /><stop
         offset="1"
         style="stop-color:#284491"
         id="stop4982" /></linearGradient><rect
       style="fill:url(#SVGID_26_)"
       x="540"
       y="297.10001"
       class="st8"
       width="60.799999"
       height="64.599998"
       id="rect4984"
       clip-path="url(#SVGID_25_)" /></g><g
     id="g4986"
     transform="matrix(0.46635534,0,0,0.46635534,-53.749723,-13.1677)"><defs
       id="defs4988"><path
         inkscape:connector-curvature="0"
         id="SVGID_27_"
         d="m 649.1,300.1 0,32.3 c 0,2.5 -0.5,4.9 -1.4,7 -0.9,2.2 -2.2,4.1 -3.8,5.7 -1.6,1.6 -3.5,2.9 -5.6,3.8 -2.1,0.9 -4.4,1.4 -6.9,1.4 -2.4,0 -4.7,-0.5 -6.8,-1.4 -2.1,-0.9 -4,-2.2 -5.6,-3.8 -1.6,-1.6 -2.9,-3.5 -3.8,-5.7 -0.9,-2.2 -1.4,-4.5 -1.4,-7 l 0,-0.1 -0.1,-32.2 -8.2,0 0.1,32.2 0,0.1 c 0,3.6 0.7,7 2.1,10.2 1.4,3.2 3.2,6 5.6,8.4 2.3,2.4 5.1,4.3 8.2,5.7 3.1,1.4 6.5,2.1 10,2.1 3.5,0 6.8,-0.7 10,-2.1 3.1,-1.4 5.9,-3.3 8.2,-5.7 2.3,-2.4 4.2,-5.2 5.5,-8.4 1.3,-3.2 2,-6.6 2,-10.2 l 0,-32.3 -8.1,0 z" /></defs><clipPath
       id="SVGID_28_"><use
         height="100%"
         width="100%"
         y="0"
         x="0"
         xlink:href="#SVGID_27_"
         style="overflow:visible"
         id="use4992" /></clipPath><linearGradient
       id="SVGID_29_"
       gradientUnits="userSpaceOnUse"
       x1="-0.0048067542"
       y1="595.27228"
       x2="0.99519998"
       y2="595.27228"
       gradientTransform="matrix(0,-58.6895,-58.6895,0,35567.617,358.5289)"><stop
         offset="0"
         style="stop-color:#19294B"
         id="stop4995" /><stop
         offset="1"
         style="stop-color:#284491"
         id="stop4997" /></linearGradient><rect
       style="fill:url(#SVGID_29_)"
       x="605.59998"
       y="300.10001"
       class="st9"
       width="51.5"
       height="58.700001"
       id="rect4999"
       clip-path="url(#SVGID_28_)" /></g><g
     id="g5001"
     transform="matrix(0.46635534,0,0,0.46635534,-53.749723,-13.1677)"><defs
       id="defs5003"><path
         inkscape:connector-curvature="0"
         id="SVGID_30_"
         d="m 676.2,298.6 c -2.5,1.1 -4.7,2.4 -6.5,4.1 -1.8,1.7 -3.2,3.6 -4.2,5.8 -1,2.2 -1.3,4.6 -1,7.1 0.4,3.3 1.5,6 3.3,8.2 1.8,2.2 4,3.8 6.5,4.9 2.5,1.1 5.3,2 8.2,2.8 3,0.8 5.5,1.6 7.4,2.6 2,0.9 3.5,2.1 4.5,3.6 1,1.5 1.5,3.6 1.4,6.2 -0.2,2.6 -1.2,4.8 -3,6.6 -1.9,1.8 -4.7,2.8 -8.5,2.8 -3.3,0.1 -6,-0.6 -8.1,-2 -2.1,-1.4 -3.6,-3 -4.4,-4.8 -0.8,-1.7 -1.2,-3.6 -1.2,-5.6 l -8,0 c -0.1,3.4 0.5,6.3 1.7,8.7 1.2,2.5 2.8,4.6 4.8,6.3 2,1.8 4.3,3.1 6.9,4.1 2.6,1 5.2,1.5 7.9,1.5 2.7,0 5.2,-0.4 7.7,-1.2 2.5,-0.8 4.7,-1.9 6.5,-3.4 1.9,-1.5 3.4,-3.3 4.5,-5.5 1.1,-2.2 1.7,-4.7 1.7,-7.4 0,-3.7 -0.7,-6.7 -2.1,-9.2 -1.4,-2.4 -3.3,-4.4 -5.8,-6 -2.5,-1.6 -5.1,-2.9 -8,-3.8 -2.8,-0.9 -5.4,-1.8 -7.7,-2.7 -2.3,-0.9 -4.2,-1.8 -5.6,-2.8 -1.4,-1 -2.3,-2.5 -2.7,-4.3 -0.4,-2.1 0.2,-4.1 1.7,-6 1.5,-1.9 3.1,-3.1 4.9,-3.8 1.8,-0.6 3.4,-0.9 4.9,-0.9 2.3,0 4.4,0.6 6.3,1.8 1.9,1.2 3.2,3 3.9,5.2 l 8.6,0 c -0.2,-1.2 -0.7,-2.6 -1.5,-4.2 -0.9,-1.6 -2.1,-3.3 -3.6,-4.9 -1.5,-1.6 -3.4,-2.9 -5.7,-3.9 -2.3,-1 -4.9,-1.5 -8,-1.5 -2.6,0.1 -5.1,0.6 -7.7,1.6" /></defs><clipPath
       id="SVGID_31_"><use
         height="100%"
         width="100%"
         y="0"
         x="0"
         xlink:href="#SVGID_30_"
         style="overflow:visible"
         id="use5007" /></clipPath><linearGradient
       id="SVGID_32_"
       gradientUnits="userSpaceOnUse"
       x1="0.00203372"
       y1="595.27539"
       x2="1.002"
       y2="595.27539"
       gradientTransform="matrix(0,-64.5586,-64.5586,0,39113.727,361.7587)"><stop
         offset="0"
         style="stop-color:#19294B"
         id="stop5010" /><stop
         offset="1"
         style="stop-color:#284491"
         id="stop5012" /></linearGradient><rect
       style="fill:url(#SVGID_32_)"
       x="662.79999"
       y="297.10001"
       class="st10"
       width="41.700001"
       height="64.599998"
       id="rect5014"
       clip-path="url(#SVGID_31_)" /></g><g
     id="g5016"
     transform="matrix(0.51094843,0,0,0.51094843,-66.678375,-24.26469)"><defs
       id="defs5018"><rect
         y="0"
         x="0"
         id="SVGID_33_"
         width="841.90002"
         height="595.29999" /></defs><clipPath
       id="SVGID_34_"><use
         height="100%"
         width="100%"
         y="0"
         x="0"
         xlink:href="#SVGID_33_"
         style="overflow:visible"
         id="use5022" /></clipPath></g></svg>