<?xml version="1.0" encoding="UTF-8" standalone="no"?>
<!-- Created with Inkscape (http://www.inkscape.org/) -->

<svg
   xmlns:dc="http://purl.org/dc/elements/1.1/"
   xmlns:cc="http://creativecommons.org/ns#"
   xmlns:rdf="http://www.w3.org/1999/02/22-rdf-syntax-ns#"
   xmlns:svg="http://www.w3.org/2000/svg"
   xmlns="http://www.w3.org/2000/svg"
   xmlns:xlink="http://www.w3.org/1999/xlink"
   xmlns:sodipodi="http://sodipodi.sourceforge.net/DTD/sodipodi-0.dtd"
   xmlns:inkscape="http://www.inkscape.org/namespaces/inkscape"
   width="64px"
   height="64px"
   id="svg8462"
   version="1.1"
   inkscape:version="0.47 r22583"
   sodipodi:docname="magplus2.svg"
   inkscape:export-filename="/tmp/cgs/perforce/dev/magics/tools/logo/magplus2.png"
   inkscape:export-xdpi="69.473686"
   inkscape:export-ydpi="69.473686">
  <defs
     id="defs8464">
    <linearGradient
       inkscape:collect="always"
       id="linearGradient9087">
      <stop
         style="stop-color:#2925d0;stop-opacity:0.33163265"
         offset="0"
         id="stop9089" />
      <stop
         style="stop-color:#0500ff;stop-opacity:0;"
         offset="1"
         id="stop9091" />
    </linearGradient>
    <inkscape:perspective
       sodipodi:type="inkscape:persp3d"
       inkscape:vp_x="0 : 32 : 1"
       inkscape:vp_y="0 : 1000 : 0"
       inkscape:vp_z="64 : 32 : 1"
       inkscape:persp3d-origin="32 : 21.333333 : 1"
       id="perspective8470" />
    <linearGradient
       inkscape:collect="always"
       xlink:href="#linearGradient9087"
       id="linearGradient9093"
       x1="-0.18181819"
       y1="0.18181819"
       x2="60.181816"
       y2="53.909088"
       gradientUnits="userSpaceOnUse"
       gradientTransform="matrix(0.95397447,0,0,0.95371221,1.4686298,1.485417)" />
    <inkscape:perspective
       id="perspective9115"
       inkscape:persp3d-origin="0.5 : 0.33333333 : 1"
       inkscape:vp_z="1 : 0.5 : 1"
       inkscape:vp_y="0 : 1000 : 0"
       inkscape:vp_x="0 : 0.5 : 1"
       sodipodi:type="inkscape:persp3d" />
    <inkscape:perspective
       id="perspective9218"
       inkscape:persp3d-origin="0.5 : 0.33333333 : 1"
       inkscape:vp_z="1 : 0.5 : 1"
       inkscape:vp_y="0 : 1000 : 0"
       inkscape:vp_x="0 : 0.5 : 1"
       sodipodi:type="inkscape:persp3d" />
    <inkscape:perspective
       id="perspective9243"
       inkscape:persp3d-origin="0.5 : 0.33333333 : 1"
       inkscape:vp_z="1 : 0.5 : 1"
       inkscape:vp_y="0 : 1000 : 0"
       inkscape:vp_x="0 : 0.5 : 1"
       sodipodi:type="inkscape:persp3d" />
  </defs>
  <sodipodi:namedview
     id="base"
     pagecolor="#ffffff"
     bordercolor="#666666"
     borderopacity="1.0"
     inkscape:pageopacity="0.0"
     inkscape:pageshadow="2"
     inkscape:zoom="2"
     inkscape:cx="32"
     inkscape:cy="32"
     inkscape:current-layer="layer1"
     showgrid="true"
     inkscape:document-units="px"
     inkscape:grid-bbox="true"
     inkscape:window-width="891"
     inkscape:window-height="788"
     inkscape:window-x="287"
     inkscape:window-y="51"
     inkscape:window-maximized="0" />
  <metadata
     id="metadata8467">
    <rdf:RDF>
      <cc:Work
         rdf:about="">
        <dc:format>image/svg+xml</dc:format>
        <dc:type
           rdf:resource="http://purl.org/dc/dcmitype/StillImage" />
        <dc:title></dc:title>
      </cc:Work>
    </rdf:RDF>
  </metadata>
  <g
     id="layer1"
     inkscape:label="Layer 1"
     inkscape:groupmode="layer">
    <rect
       style="opacity:0.23979594;fill:url(#linearGradient9093);fill-opacity:1;fill-rule:evenodd;stroke:#23209f;stroke-width:0.9540022;stroke-linejoin:miter;stroke-miterlimit:4;stroke-opacity:1;stroke-dasharray:none"
       id="rect8472"
       width="61.227814"
       height="60.864178"
       x="1.2951773"
       y="1.6588172" />
    <g
       id="page"
       transform="matrix(0.14565713,0,0,0.14692744,2.7776122,61.680945)"
       vector-effect="non-scaling-stroke">
      <g
         id="basic0">
        <g
           id="Page0">
          <g
             inkscape:groupmode="layer"
             inkscape:label="StaticLayer"
             id="StaticLayer">
            <title
               id="title8135">StaticLayer</title>
            <g
               id="g8137">
              <g
                 id="drawing"
                 transform="translate(111.961,-480.21)">
                <g
                   style="fill:none;stroke:#000066;stroke-width:1.5px"
                   id="g8140">
                  <path
                     d="m -111.961,98.4981 0.58287,-1.7049 0.20975,-0.582874 0.80359,-2.40379 0.45942,-1.59621 0.45009,-1.49429 0.51621,-2.50571 0.16105,-0.817018 0.81702,-3.17842 8.8e-4,-0.0037 1.3e-4,-8.81e-4 0.72745,-3.27154 0.0555,-0.728464"
                     id="path8142" />
                  <path
                     d="m -2.11506,80.2103 2.15441,1.22917 3.63678,2.40761 0.36322,0.238663 0.2535,0.124556 3.7465,1.66776 2.84166,1.1739 1.15834,0.472643 1.87564,0.685698 2.12436,0.732413 1.03789,0.305473 2.96211,0.956157 3.05649,1.06244 0.943514,0.351355 1.65034,0.592159 2.34966,0.789786 1.03606,0.246273 2.96394,0.919653 2.45069,0.49498 1.54931,0.402582 3.31567,0.462396 0.684331,0.133235 3.41107,-0.03783 0.58893,0.04959 3.26533,-0.19533 0.73467,-0.02325 2.62044,-0.62164 1.37956,-0.210661 1.96794,-0.441835 2.03206,-0.396778 1.25272,-0.318446 2.74728,-0.653508 0.458488,-0.14072 1.48879,-0.458488 1.55507,-0.497651 0.497651,-0.101026 2.47485,-0.926473 1.52515,-0.51383 1.37216,-0.588863 2.62784,-1.15529 0.152398,-0.06447 0.343832,-0.152398 2.43565,-1.06812 1.06812,-0.500472 1.66919,-0.76221 2.33081,-1.2395 0.284163,-0.145527 0.51595,-0.284163 2.15032,-1.04956 1.04956,-0.61883 1.51152,-0.820082 2.48848,-1.50398 0.0048,-0.0027 0.0081,-0.0048"
                     id="path8144" />
                  <path
                     d="m -111.961,233.144 2.56758,3.06668 1.43242,1.61871 2.21635,2.38129 1.78365,1.98893 2.02424,2.01107 1.97576,2.06044 1.89918,1.93956 2.10082,2.24167 1.70989,1.75833 2.29011,2.42227 1.4932,1.57773 2.5068,2.7687 1.10434,1.2313 2.89566,3.22799 0.646268,0.77201 2.89437,3.54064 0.376056,0.45936 0.0833,0.10161 3.17328,3.89839 0.826721,0.98244 2.62152,3.01756 1.37848,1.50998 2.39965,2.49002 1.60035,1.56399 2.56879,2.43601 1.43121,1.26417 3.55568,2.73583 0.444316,0.31403 1.02356,0.70953 2.97644,2.06613 1.37696,0.91031 2.62304,1.82342 3.17844,2.17658 0.82156,0.57949 1.96681,1.38731 2.03319,1.41081 0.956541,0.62238 3.04346,2.13744 2.98586,1.86256 1.01414,0.64803 1.89614,1.24812 2.10386,1.35677 1.26418,0.74708 2.73582,1.73688 3.76945,2.26312 0.230547,0.14246 0.319534,0.17707 3.68047,1.94852 3.9378,1.73195 0.06221,0.0282 0.05315,0.025 3.94685,1.8854 3.8264695,2.06144 0.173529,0.10042 0.261587,0.16116 3.73841,2.33607 2.42878,1.40234 1.57122,0.9706 3.77259,3.02941 0.227407,0.21492 0.752047,0.53712 3.24795,2.26666 1.33805,0.9813 2.6619505,2.48488 1.81429,1.51512 2.18571,1.49927 2.90295,1.40367 1.09705,0.31745 1.04717,0.7796 2.95283,1.59125 1.7676,0.17635 2.2324,0.31053 2.06287,-0.0153 1.93713,0.39399 2.81744,0.36058 1.18256,0.0802 3.53243,0.63478 0.467566,0.0929 3.16554,0.37463 0.834459,0.0855 0.08986,0.004 3.91014,0.25292 0.371362,0.0286 3.62864,-0.1878 0.13387,-0.0497 0.38408,-0.13387 2.42511,-1.05694 1.05694,-0.39459 2.23092,-0.31755 1.76908,-1.51444 0.426093,-0.29039 0.772967,-0.42609 1.78858,-1.01236 1.01236,-0.7731 1.51774,-0.6968 2.48226,-1.22255 0.201931,-0.0933 0.624122,-0.20193 2.09044,-1.08351 1.08351,-0.24836 1.51103,-1.15711 2.48897,-1.24987 0.157909,-0.10325 0.695466,-0.15791 2.30325,-0.84337 0.843374,-1.14378 0.755522,-1.25732 0.627106,-0.75553 0.697514,-1.91986 0.61041,-2.08014 0.08765,-1.2218 0.03783,-2.7782 0.181997,-1.00197 0.44169,-2.99803 0.05966,-0.50062 0.500621,-1.78712 0.47191,-1.24035 -0.07527,-0.47191 -0.296425,-3.89978 -0.01394,-0.10021 -0.08628,-0.62601 -0.52653,-3.37399 -0.0014,-0.52791 0.527913,-2.90027 0.08694,-0.48489 -0.01181,-0.0869 -0.07512,-0.23603 -1.00986,-3.76397 0.03591,-0.97395 0.407563,-3.02605 0.149893,-0.4165 0.416498,-1.07491 0.739911,-1.76868 0.164443,-0.73991 0.885955,-2.20969 0.713079,-1.79031 0.438861,-1.05775 1.05775,-1.20385 0.855644,-0.88276 1.31316,-0.85564 1.24879,-0.58241 0.582411,-0.31081 2.12881,-0.97797 1.87119,-0.93863 0.792653,-0.39753 1.97038,-0.79265 0.791775,-0.44519 0.445194,-0.31326 1.73023,-1.51132 2.2154,-1.73023 0.0244,-0.0299 0.0299,-0.058 1.15753,-2.75459 0.21038,-1.15753 0.084,-2.54811 -0.0885,-1.45189 -0.33283,-2.96942 -0.13084,-1.03058 -0.8384,-3.93865 -0.0114,-0.0613 -0.0499,-0.15946 -1.20151,-3.84055 -0.23079,-1.43229 -0.49856,-2.56771 -0.42199,-2.35284 -0.33366,-1.64716 -0.23254,-2.91904 -0.0112,-1.08096 -0.0711,-3.00137 -0.0892,-0.99863 -0.90941,-2.67003 -0.390298,-1.32997 -0.209595,-0.59989 -1.37761,-3.40011 -2.0225,-3.88702 -0.04728,-0.11298 -0.138951,-0.18624 -2.91762,-3.81377 -0.896142,-0.86951 -3.83689,-3.13049 -0.163115,-0.13669 -0.556833,-0.42014 -3.44317,-2.55432 -1.43778,-0.88884 -2.56222,-1.44873 -2.94405,-1.49532 -1.05595,-0.51367 -1.18945,-0.54228 -2.81055,-1.33619 -2.76851,-1.43232 -1.23149,-0.54896 -3.24323,0.0742 -0.756768,-0.0904 -3.47825,-0.14459 -0.521748,0.03 -3.74094,-0.55177 -0.25906,-0.0467 -0.100853,-0.0541 -3.89915,-1.63679 -2.52699,-2.26236 -1.47301,-1.6589 -2.90573,-2.3411 -1.09427,-1.1766 -2.52542,-2.8234 -1.47458,-2.55335 -0.610783,-1.44665 -0.350443,-0.96123 -1.12764,-3.03877 -0.995293,-3.08416 -0.188798,-0.91584 -0.720035,-3.99299 -0.0012,-0.007 1.14746,-2.84677 0.520286,-1.15323 1.03593,-1.29055 1.29055,-2.54759 0.0567,-0.10516 0.03734,-0.0567 1.81184,-2.09412 1.57204,-1.90588 0.296743,-0.22533 0.225329,-0.26684 1.90651,-1.60132 1.33888,-1.90651 0.401992,-0.35261 0.352613,-0.36297 1.86277,-1.42165 2.13723,-1.79891 0.02657,-0.0373 0.03458,-0.0266 2.09269,-1.84615 1.84615,-1.14915 0.447683,-0.55702 0.497301,-0.44768 1.56254,-1.49247 1.49247,-1.44677 0.447609,-0.61314 0.397412,-0.44761 1.37691,-1.77807 1.77807,-2.10826 0.04863,-0.0651 0.03835,-0.0486 1.80628,-2.10674 1.58991,-1.89326 0.222348,-0.29448 0.294482,-0.25196 1.71178,-1.74178 1.72765,-1.71178 0.2713,-0.28927 0.28927,-0.22819 1.79544,-1.68709 1.67903,-1.79544 0.246415,-0.27911 0.27911,-0.2259 1.86638,-1.62861 2.13362,-1.68359 0.103219,-0.0796 0.103159,-0.10322 2.01358,-1.78005 1.78005,-1.29209 0.556175,-0.37169 0.707883,-0.55618 1.57829,-1.15765 1.15765,-0.74859 1.27695,-0.8168 1.85895,-1.27695 0.519527,-0.34457 0.344571,-0.22354 2.09293,-1.33895 1.90707,-1.09011 0.653054,-0.34978 1.10779,-0.65305 1.43399,-0.80516 0.805154,-0.43615 1.80573,-0.95296 2.19427,-1.11574 0.47713,-0.21287 0.91941,-0.47712 1.73588,-0.86759 0.86759,-0.37326 1.92084,-0.83832 2.07916,-0.91834 0.71873,-0.28376 1.5711,-0.71874 1.17401,-0.53615 0.53616,-0.23008 2.32588,-0.90788 1.67412,-0.54341 1.30456,-0.47792 2.69544,-1.26606 0.0256,-0.0129 0.0687,-0.0256 2.81225,-1.09353 1.09353,-0.42475 1.71425,-0.76747 2.28575,-0.89347 0.60153,-0.21925 1.66664,-0.60153 1.27581,-0.456017 0.45602,-0.1719 2.3524,-1.01968 1.6476,-0.639929 1.28213,-0.430344 2.71787,-1.01778 0.18689,-0.07745 0.45547,-0.186897 2.41441,-0.943229 0.94323,-0.38616 1.83204,-0.838572 2.16796,-1.72138 0.0719,-0.03879 0.20795,-0.07187 2.5573,-1.16289 1.16289,0.07851 2.60422,-0.311412 1.39578,-0.319729 1.68749,-0.596998 2.31251,-0.773678 0.69963,-0.214175 2.16126,-0.699637 0.88737,-0.251739 0.25174,-0.06907 2.76575,-0.913439 1.23425,-0.363274 1.87445,-0.528027 2.12555,-0.608967 0.96894,-0.296544 3.03106,-0.919146 0.0377,-0.01213 0.11523,-0.03766 2.87923,-0.96788 0.96788,-0.283597 1.98202,-0.766504 2.01798,-0.768026 0.8239,-0.390088 1.75023,-0.823904"
                     id="path8146" />
                  <path
                     d="m -111.961,295.716 0.45774,0.49454 3.54226,3.71053 0.27378,0.28947 3.72621,3.94436 0.054,0.0556 0.68736,0.74132 3.0048,3.25868 0.253885,0.28197 3.31361,3.71803 0.686393,0.69559 3.21901,3.30441 0.780986,0.80376 3.21078,3.19624 0.789225,0.78491 3.24099,3.21509 0.759008,0.76424 3.31612,3.23576 0.683882,0.59559 2.89106,2.29546 1.10894,0.88897 0.28419,0.21998 3.71581,2.90112 1.42226,1.09888 2.57774,2.16882 2.12897,1.83118 1.87103,1.64653 2.57066,2.35347 1.42934,1.35997 2.58329,2.64003 1.41671,1.40285 2.41491,2.59715 1.58509,1.57351 3.55848,1.98498 0.441518,0.28495 0.346853,0.15657 3.65315,2.16131 2.06687,1.83869 1.93313,1.23889 2.71294,1.47404 1.28706,0.60493 0.84806,0.68213 3.15194,3.11507 0.845237,0.88493 3.15476,2.67665 1.88211,1.32335 2.11789,1.69308 3.33488,2.30692 0.665121,0.60231 1.34703,0.74471 2.65297,1.69539 1.80052,0.95758 2.19948,0.70008 1.41019,0.71012 2.5898098,1.20415 2.32057,1.38565 1.67943,1.31594 3.25343,1.9375 0.746566,0.47109 0.366839,0.27547 3.63316,2.75062 2.62052,1.24938 1.37948,0.64258 0.762425,0.11985 3.2375702,0.89309 2.15054,0.49502 1.84946,0.47646 3.88591,1.25891 0.114089,0.03 3.67904,0.0841 0.320963,0.008 0.01045,0.003 3.98955,1.0041 1.19358,0.17902 2.80642,0.64627 1.91074,0.0709 2.08926,0.0874 2.13084,0.13276 1.86916,0.3386 2.56999,0.10054 1.43001,0.0954 2.68163,0.0162 1.31837,0.007 2.92802,0.23912 1.07198,-0.0428 3.48177,0.59661 0.518226,0.0502 3.59953,0.0675 0.400468,-0.006 3.8127,0.21952 0.187301,0.01 3.42871,-0.39383 0.571295,0.04 3.06803,-0.40072 0.93197,-0.18185 2.51602,-0.37016 1.48398,-0.18083 1.99821,-0.33698 2.00179,-0.31017 1.41812,-0.26991 2.58188,-0.42074 0.814993,-0.1824 3.18501,-0.68816 0.100472,-0.0264 0.349123,-0.10047 2.79858,-0.75182 0.751823,-0.20284 2.29009,-0.75525 1.70991,-0.49689 1.33683,-0.45637 2.663179,-0.98248 0.27324,-0.0811 0.59694,-0.27325 2.26491,-0.8649 0.8649,-0.36713 2.12314,-0.64482 1.87686,-0.80109 0.94175,-0.38031 2.85829,-0.94175 0.1536,-0.0464 0.0464,-0.0163 2.71832,-1.21906 1.28168,-0.60228 1.48298,-0.63306 2.51702,-1.41968 0.045,-0.0183 0.0726,-0.045 2.60347,-1.2789 1.2789,-0.8315 1.30869,-0.58091 1.92925,-1.30869 0.47833,-0.28374 0.28374,-0.22048 2.22597,-1.26981 1.77403,-1.29949 0.55414,-0.37234 0.68776,-0.55415 1.58119,-1.1769 1.1769,-1.00371 1.01926,-0.80012 1.05306,-1.01926 1.03506,-0.89263 0.89263,-0.99714 1.10619,-1.00404 1.16178,-1.10619 0.97966,-0.75237 0.75236,-0.47815 1.76274,-1.00673 2.23726,-1.27418 0.29185,-0.19672 0.28766,-0.29184 1.68495,-1.73555 0.1619,-2.26445 0.0341,-1.53959 0.60777,-2.46041 0.21881,-0.71301 0.71301,-0.92724 1.36948,-0.99028 2.63052,-1.05397 0.18908,-0.12642 0.12755,-0.18908 0.64824,-3.03513 0.57165,-0.96487 1.21268,-1.25079 1.25079,-0.79907 1.06093,-0.88921 1.51452,-1.06093 0.85948,-0.56508 0.56507,-0.54238 1.54569,-1.34685 1.00741,-1.54569 0.66629,-0.78062 0.78061,-1.19533 0.85671,-1.16735 0.5234,-0.8567 0.88102,-1.73887 1.47047,-2.26113 0.0698,-0.19859 0.19858,-0.43926 1.06108,-2.30107 0.6116,-1.06108 1.06392,-1.26339 1.26339,-2.36004 0.14819,-0.22837 0.0805,-0.1482 1.51131,-2.26004 1.12921,-1.73996 0.36364,-0.76718 0.76719,-2.52628 0.18443,-0.52211 0.14803,-0.18443 1.38854,-2.279 0.99163,-1.721 0.67015,-0.61722 0.61722,-0.62454 1.40955,-1.34869 1.02979,-1.40955 0.46331,-1.09735 1.09735,-2.07048 0.28802,-0.54414 0.14931,-0.28802 1.19616,-2.3665 1.08281,-1.6335 0.46664,-0.81705 0.81705,-1.13675 0.91716,-1.12904 0.56676,-0.91716 0.96424,-1.55184 1.55184,-1.95538 0.21956,-0.27323 0.21629,-0.21956 0.96094,-2.60321 0.58954,-1.39679 0.69176,-1.32192 1.32192,-1.64156 0.57491,-0.46161 0.37703,-0.57491 1.10728,-1.94078 1.19772,-2.05922 0.23706,-0.50599 0.50599,-0.72315 1.36842,-1.40244 2.25901,-1.36842 0.20363,-0.16893 0.16893,-0.25765 2.27656,-1.29687 0.13929,-2.27656 -0.30361,-1.88776 1.88776,-1.62552 0.33567,-0.15105 0.19969,-0.33567 1.4179,-2.04674 2.04674,-1.63853 2.94277,3.68528 1.05723,1.4175 0.99609,2.5825 3.00391,2.35212 3.75034,1.39822 0.24966,0.13692 0.30321,0.11274 3.69679,2.04803 2.35396,0.30592 1.64604,0.74509 3.10102,0.002 0.89897,-0.0678 3.23249,0.19924 0.76751,-0.071 2.31571,-0.84579 1.68429,-0.084 1.47804,-0.75364 2.52196,-1.26607 0.14618,-0.0658 0.20336,-0.14619 2.4245,-1.22596 1.22596,-0.96766 1.06693,-0.73945 1.12675,-1.06693 0.94681,-0.85951 0.85951,-1.04257 0.95848,-1.13944 0.6351,-0.95848 0.84175,-1.56468 1.56468,-2.06484 0.18956,-0.18092 0.0859,-0.18956 1.5586,-2.1659 1.83375,-1.8341 -0.0189,-0.35105 -1.83984,-3.64896 0.40793,-1.78295 0.33575,-2.21705 -0.71112,-2.15832 0.1102,-1.84168 -0.36729,-2.41541 0.29418,-1.58459 -1.87877,-2.64427 -0.78212,-1.35573 -3.21789,-2.19342 -2.69192,-1.80658 -1.30808,-0.84263 -1.06774,-0.2251 -2.93226,-0.31018 -2.5515,-1.17359 -1.4485,0.0843 -3.66696,-1.19974 -0.33303,-0.1843 -0.56479,-0.14874 -3.43521,-0.51428 -0.56565,-0.0514 -3.43435,-0.0839 -0.67516,-0.0256 -3.32484,0.0821 -0.57309,0.02 -3.42691,0.30958 -0.2359,0.0276 -0.70127,0.23589 -2.32472,0.73811 -0.73811,0.23864 -2.57852,0.44473 -1.42148,0.49016 -1.80407,0.28429 -2.19593,1.08386 -0.63993,0.0803 -2.31974,0.63993 -0.80625,0.23409 -0.23408,0.14838 -1.88561,-0.38247 -2.11439,-0.28113 -0.47682,-0.19568 -3.52319,-1.43589 -3.07014,-2.0873 -0.92986,-0.60928 -1.86448,-1.25519 -2.13552,-1.52535 -0.88956,-0.61018 -3.11044,-1.92006 -3.66685,-2.07994 -0.33315,-0.14555 -0.34736,-0.20181 -3.65264,-2.27064 -2.07365,-1.382 -1.92635,-1.09053 -2.44068,-1.35015 -1.55932,-0.88077 -0.963,-0.67855 -3.03699,-1.91415 -2.93518,-2.08585 -1.06482,-0.69044 -1.99495,-1.30451 -2.00505,-1.32555 -0.83506,-0.6795 -3.16495,-2.46955 -2.77063,-1.53045 -1.22937,-0.73322 -1.60123,-0.86801 -2.39877,-1.44772 -1.66207,-0.95105 -2.33793,-1.36209 -3.00483,-1.64274 -0.99517,-0.56652 -0.78721,-0.42865 -3.21279,-1.85915 -3.24172,-2.14085 -0.75828,-0.51788 -1.80743,-1.28955 -2.19257,-1.5629 -0.813,-0.62967 -3.187,-2.67824 -1.64532,-1.32176 -2.35468,-2.88553 -0.80753,-1.11447 -0.34966,-1.15719 -0.74841,-2.84281 0.15929,-1.7463 0.2534,-2.2537 0.23909,-1.25381 0.69226,-2.74619 0.14695,-0.4146 0.41461,-1.34713 0.53704,-1.70122 0.23042,-0.53705 0.95957,-2.27297 0.8082,-1.72703 0.55876,-0.90601 0.90601,-1.82672 0.46576,-0.80151 0.21806,-0.46576 1.27535,-2.04083 0.94766,-1.95917 0.49579,-0.59738 0.59738,-0.75349 1.20417,-1.44496 0.89952,-1.20417 0.94551,-0.95079 0.95079,-0.86684 1.1317,-1.05066 1.14066,-1.1317 0.94595,-0.7817 0.78169,-0.55532 1.5081,-1.15489 2.04771,-1.5081 0.25861,-0.18559 0.18559,-0.10789 2.19784,-1.50867 1.80216,-1.01921 0.74265,-0.43599 1.28246,-0.74265 1.22963,-0.74526 0.74526,-0.40586 1.76755,-1.08133 2.23245,-1.10626 0.42862,-0.23267 0.87122,-0.42863 1.79433,-0.90583 0.90583,-0.4646 1.70909,-0.92047 2.29091,-1.11592 0.396,-0.19718 0.79529,-0.396 1.9141,-0.8946 0.8946,-0.48147 1.77201,-0.85191 2.22799,-1.05523 0.48313,-0.23367 0.90298,-0.48312 1.78411,-0.82978 0.82978,-0.4119 1.91381,-0.84451 2.08619,-1.07159 0.57287,-0.26935 1.04671,-0.57287 1.6203,-0.76012 0.76012,-0.41547 2.01768,-0.80673 1.98232,-0.77669 0.9334,-0.30759 2.73115,-0.9334 0.25759,-0.0779 0.0779,-0.0242 2.90562,-0.99227 1.09438,-0.56156 1.66633,-0.67774 2.33367,-1.23641 0.29315,-0.13677 0.52189,-0.29315 2.10406,-1.0809 1.0809,-0.68724 1.4446,-0.78726 2.26615,-1.4446 0.18389,-0.10536 0.10536,-0.0691 2.38299,-1.44257 1.61701,-1.09118 0.79272,-0.49909 1.1102,-0.79272 1.28142,-0.81566 0.81566,-0.58438 1.6069,-0.99306 2.16031,-1.6069 0.14026,-0.0925 0.0925,-0.0708 2.26998,-1.566705 1.73002,-1.37696 0.52337,-0.369644 0.59223,-0.523376 1.61594,-1.26845 1.26845,-1.16883 0.86765,-0.695064 0.81612,-0.867652 1.22017,-1.09606 1.09606,-1.24349 0.94317,-0.717278 0.90158,-0.94317 1.16042,-0.994825 0.99482,-1.13541 0.88219,-0.98758 0.57822,-0.882183 1.1087,-1.43089 1.43089,-2.22026 0.13942,-0.209444 0.0865,-0.139412"
                     id="path8148" />
                  <path
                     d="m 110.865,480.21 0.61917,-0.55567 0.55567,-0.43868 1.8925,-1.11315 2.1075,-1.79067 0.0602,-0.0416 0.10235,-0.0603 2.32284,-1.51456 1.51456,-1.08737 0.81166,-0.5864 1.37847,-0.81166 1.08078,-0.72909 0.72909,-0.40387 1.67196,-1.19508 2.32804,-1.44836 0.12555,-0.0981 0.16506,-0.12555 2.0225,-1.68689 1.68689,-1.28646 0.49922,-0.52743 0.49794,-0.49922 1.39601,-1.60683 1.60683,-1.39078 0.5508,-0.45159 0.70225,-0.5508 1.45297,-1.29398 1.29398,-0.9118 1.11036,-0.68386 2.51442,-1.11036 0.26377,-0.11144 0.11145,-0.0575 2.21369,-1.61732 1.78631,-1.50305 0.4063,-0.30434 0.54153,-0.4063 1.77431,-1.27785 1.27785,-1.06203 0.86355,-0.79658 1.45111,-0.86354 0.94468,-0.74067 0.74067,-0.53104 1.37288,-1.35541 1.91212,-1.37288 0.35848,-0.35651 0.35652,-0.23533 1.69224,-1.71592 2.30776,-1.30594 0.2107,-0.17559 0.21903,-0.2107 1.67411,-1.89616 1.89616,-1.49054 0.3292,-0.2841 0.36007,-0.3292 1.78488,-1.52585 1.52585,-1.17128 0.77839,-0.52448 0.77487,-0.77839 1.22121,-1.22553 1.22553,-1.04588 1.03231,-0.69629 0.9314,-1.03231 1.01752,-1.01877 1.01877,-0.98738 1.19342,-0.80042 1.1972,-1.19342 0.8373,-0.77208 0.77207,-0.75591 1.38334,-1.08868 1.37823,-1.38334 0.67438,-0.56407 0.56406,-0.49823 1.65494,-1.28276 1.66442,-1.65494 0.38028,-0.30035 0.30036,-0.33133 1.7684,-1.59991 1.92387,-1.7684 0.16898,-0.13875 0.13875,-0.13307 2.05362,-1.67457 1.94638,-1.73393 0.1876,-0.13208 0.223,-0.1876 2.07934,-1.51006 1.51006,-1.27127 0.71809,-0.50059 0.71546,-0.71809 1.41771,-1.14873 1.14873,-1.08248 0.9717,-0.79709 1.07144,-0.97169 1.10981,-0.84706 0.84705,-0.82995 1.31014,-1.01285 1.83573,-1.31014 0.52825,-0.32588 0.32588,-0.21159 2.18716,-1.27537 1.81284,-1.02579 0.77575,-0.38562 1.46251,-0.77575 1.15489,-0.60686 0.60686,-0.36652 1.96703,-1.05959 2.03297,-1.33286 0.42482,-0.20935 0.77575,-0.42482 1.85266,-0.94677 0.94677,-0.56421 1.57434,-0.91468 2.42566,-1.38633 0.1329,-0.0551 0.24477,-0.13291 2.47163,-1.1507 1.1507,-0.59257 1.53243,-0.72429 2.46757,-1.40846 0.0878,-0.0362 0.21367,-0.0878 2.69465,-1.00386 1.00386,-0.65458 1.43949,-0.90207 2.56051,-1.1841 0.17298,-0.0824 0.2833,-0.17298 2.287,-1.25672 1.25672,-0.64072 1.61135,-0.49121 2.38865,-1.00472 0.41037,-0.19626 1.10124,-0.41037 1.81117,-0.67722 0.67722,-0.13292 2.32147,-0.8684 1.67853,-0.79959 1.10113,-0.42074 2.57887,-1.10113 0.22339,-0.0966 0.0966,-0.0374 2.62274,-1.24327 1.37726,-0.56167 1.44314,-0.61793 2.55686,-1.43292 0.007,-0.003 0.0157,-0.007 2.79804,-1.17909 1.17909,-0.40529 1.81049,-0.60513 2.18951,-0.76475"
                     id="path8150" />
                  <path
                     d="m -11.9607,223.826 -2.67141,-2.28707 -1.32859,-1.06019 -2.31361,1.418 -1.68639,-0.003 -1.87976,0.43693 -2.12024,0.30232 -1.52134,0.0561 -2.47866,0.0193 -1.82534,-0.32327 -2.17466,-0.5084 -3.86949,-1.53575 -0.130506,-0.0298 -3.33659,0.56272 -0.663407,0.28229 -2.26436,0.78995 -1.73564,1.19199 -0.61267,0.4597 -0.601054,0.61267 -1.61185,1.17443 -1.17443,0.85216 -1.06095,0.91247 -0.671063,1.06095 -1.0587,1.20929 -1.20929,2.43038 -0.136882,0.22345 -0.0525,0.13688 -1.31771,2.49291 -0.605892,1.50709 -0.835328,1.05169 -1.05169,2.50774 -0.149545,0.29102 -0.0274,0.14955 -1.48906,2.33399 -0.359312,1.66601 -0.390282,1.5844 0.379419,2.4156 0.801662,2.76548 0.534771,1.23452 0.699749,1.12016 1.94946,2.87984 2.05054,2.5393 1.42551,1.4607 2.57449,2.32614 2.25613,1.67386 1.74387,1.17558 2.49066,1.31508 1.50934,0.72847 1.99327,0.78087 2.00673,0.71364 0.869808,0.15617 3.13019,0.21994 1.27609,0.18634 2.72391,0.008 1.29898,0.0151 2.70102,-0.67009 0.522511,-0.10639 1.25832,-0.52251 1.50018,-0.71899 0.71899,-0.57475 2.2437,-0.46255 1.7563,-0.34956 1.52026,-0.37388 2.47974,-1.09453 0.320911,-0.10483 0.575274,-0.32091 1.8863197,-1.21749 1.21749,-0.97466 0.986233,-0.82162 2.26255,-0.98623 0.43942,-0.3118 0.3118,-0.0596 3.43699,-0.19166 0.563006,0.0925 1.37957,0.47052 2.62043,0.56847 0.497472,-0.071 2.14003,-0.49747 0.995784,-0.36672 0.366719,-0.25218 1.40612,-1.97498 0.8393543,-1.40612 0.314785,-1.43974 0.36285,-2.56026 -0.20455,-1.28144 -0.555505,-2.71856 -1.8571003,-3.69404 -0.117557,-0.30596 -0.188399,-0.27639 -3.72396,-3.72361 -0.276043,-0.19181 -3.54551,-3.80818 -0.454491,-0.4489 -1.47436,-1.02546 -2.52564,-1.68633 -0.96322,-0.83931 -3.03678,-2.94247 -1.13026,-1.05753 -1.8408897,-2.97115 -0.761745,-1.02885 -0.267105,-0.38435"
                     id="path8152" />
                  <path
                     d="m -111.961,130.509 1.34951,-0.94915 1.14957,-1.34951 0.8003,-0.70062 0.70062,-0.7186 1.40084,-1.17994 1.02346,-1.40084 0.80459,-0.77111 0.77111,-1.00005 1.1234,-1.10544 0.76904,-1.1234 1.02065,-1.08692 1.086916,-1.61582 0.638918,-0.65835 0.4394,-0.63891 1.41229,-1.50939 1.50939,-2.36064 0.06281,-0.0672 0.04364,-0.0628 1.76164,-2.13191 1.17151,-1.86809 0.368776,-0.59162 0.591624,-1.00847 0.924258,-1.47565 0.546662,-0.92426 0.818087,-1.71099 1.16558,-2.28901 0.156135,-0.389276 0.389275,-0.71584 0.863136,-2.03175 0.462684,-0.863136 0.775251,-1.89893 1.46924,-2.10107 0.110752,-0.318939 0.318939,-0.547118 0.932947,-2.201 0.598989,-0.932947 0.579746,-1.88832 1.07629,-2.11168 0.190735,-0.621292 0.621292,-1.85428 0.349435,-1.17499 0.178519,-0.349435"
                     id="path8154" />
                  <path
                     d="m -33.7858,80.2103 1.82519,1.95121 2.10217,2.04879 1.89783,1.357 3.46322,2.10623 0.536775,0.334147 0.349197,0.202629 3.6508,2.23661 3.43302,1.76339 0.566978,0.294654 0.534214,0.23956 3.46579,1.65267 3.99762,1.81312 0.00238,0.0012 0.00188,6.94e-4 3.99812,1.72509 2.62738,0.900405 1.37262002,0.568135 1.91420998,0.804496 2.08579,0.91006 1.31599,0.40593 2.68401,1.02446 3.3364,0.99594 0.663602,0.22551 1.33056,0.43809 2.66944,0.85316 1.06942,0.21626 2.93058,0.83442 2.41372,0.50988 1.58628,0.39898 3.2415,0.4288 0.758501,0.1007 3.51752,0.17533 0.482477,0.0444 3.54014,-0.0218 0.459861,0.01 3.18675,-0.36321 0.81325,-0.0277 2.76704,-0.39205 1.23296,-0.10299 2.21552,-0.44852 1.78448,-0.32875 1.4991,-0.38767 2.5009,-0.70104 0.606571,-0.19149 2.07223,-0.60658 1.04339,-0.27781 0.277812,-0.0858 2.71327,-0.92308 1.28673,-0.41223 1.69222,-0.60882 2.30778,-0.77838 0.671627,-0.24221 1.51065,-0.67163 1.29963,-0.518089 0.518091,-0.192329 2.27856,-1.01102 1.72144,-0.697644 1.12353,-0.457384 2.71909,-1.12353 0.107762,-0.04962 0.04962,-0.02328 2.68018,-1.24693 1.31982,-0.642235 1.30696,-0.730984 2.43762,-1.30696 0.170586,-0.08483 0.08483,-0.04111 2.60596,-1.2681 1.39404,-0.795019 1.18662,-0.624328 2.10629,-1.18662 0.453965,-0.253125 0.253125,-0.147149 2.34349,-1.25624 1.65651,-0.953597 0.895289,-0.494601 1.45923,-0.895289 1.03326,-0.612225 0.612227,-0.389163 1.90738,-1.09123 2.09262,-1.55434 0.22052,-0.132515 0.30176,-0.220527"
                     id="path8156" />
                  <path
                     d="m -111.961,245.097 2.75138,3.11334 1.24862,1.47975 2.14195,2.52025 1.85805,2.23512 1.48371,1.76488 2.51629,2.89765 1.01301,1.10235 2.98699,3.21594 0.734333,0.78406 3.26567,3.58684 0.37517,0.41316 2.77327,3.14844 0.748213,0.85156 0.103343,0.12009 3.37122,3.87991 0.628779,0.74386 2.68044,3.25614 1.31956,1.57294 2.09397,2.42706 1.90603,1.97388 2.11941,2.02612 1.88059,1.61857 2.78672,2.38143 1.21328,1.03319 3.84606,2.81287 0.153944,0.11654 0.05413,0.0374 3.94587,2.83546 1.64205,1.16454 2.35795,1.77972 3.00038,2.22028 0.999621,0.76257 3.35357,2.591 0.64643,0.50126 0.178648,0.14517 3.82135,3.2839 0.940372,0.7161 3.05963,2.44919 1.99693,1.55081 2.00307,1.65405 3.0134,2.34595 0.986597,0.76185 2.77913,2.01728 1.22087,0.88572 0.508451,0.33515 3.49155,2.31298 2.74008,1.68702 1.25992,0.81519 1.79934,0.98415 2.20066,1.17319 1.96811,1.02747 2.03189,1.23613 3.2370596,2.76387 0.762938,0.51665 1.296,0.77935 2.704,1.51448 1.10963,1.18952 2.89037,2.79083 1.01922,1.20917 2.98078,3.84492 0.189316,0.15508 3.81068,3.04652 1.53214,0.95349 2.4678604,2.26356 2.27246,1.73644 1.72754,1.0681 2.12051,1.05241 1.87949,0.88956 3.34928,0.98992 0.650724,0.14122 0.156365,0.0152 3.84363,0.14399 0.335449,0.0351 3.66455,0.0431 0.340729,-0.0378 3.65927,-0.13525 0.198168,-0.007 3.42743,-0.19817 0.351682,-0.0227 0.02272,-8e-4 3.81301,-0.16347 0.186989,-0.002 3.79156,-0.0191 0.208441,-0.003 3.74889,-0.0399 0.251107,0.0162 3.0273,-0.73782 0.9727,-0.32225 1.5344,-1.17065 2.4656,-0.98154 1.12263,0.56978 2.87737,1.17218 2.22605,-0.0688 1.77395,0.0226 1.72372,-0.5249 2.27628,-0.39783 1.07668,-0.24921 2.92332,-0.72786 0.289235,-0.0596 0.975913,-0.28923 2.101,-0.63386 0.633857,-0.29209 2.30704,-0.76701 1.69296,-0.69075 1.26346,-0.35283 2.73654,-1.2587 0.0032,-0.002 0.0069,-0.003 2.68877,-1.30115 1.30115,-0.83232 1.19426,-0.67227 1.4373,-1.19426 0.754619,-0.61382 0.613816,-1.19122 0.757422,-1.43754 1.69672,-0.75742 1.123,-0.42286 0.422859,-0.68719 1.33169,-1.55826 1.10225,-1.33169 0.72539,-0.84067 0.84067,-1.22378 0.87523,-1.06033 0.73555,-0.87523 0.99052,-1.3987 1.3987,-2.1856 0.16491,-0.25078 0.15808,-0.16492 1.78432,-1.8927 1.8522,-2.1073 0.0159,-0.0246 0.0246,-0.0459 1.49445,-2.43496 0.99976,-1.49445 0.28213,-1.22366 0.52998,-2.77634 0.26061,-0.43307 0.43307,-0.64034 1.33863,-1.58796 0.73007,-1.33863 0.82247,-1.10883 1.10883,-1.78723 0.42068,-0.68327 0.18532,-0.42068 1.06113,-2.33288 0.44098,-1.66712 0.14224,-1.74965 0.69277,-2.25035 0.25649,-0.80039 0.80039,-2.14931 0.25981,-0.79049 0.10043,-0.2598 0.53045,-3.10931 0.51293,-0.89069 0.9262,-1.67019 0.24282,-2.32981 0.6049,-0.82247 0.82246,-2.37698 0.27929,-0.52127 0.0532,-0.27928 0.87425,-2.79331 0.0226,-1.20669 0.85844,-1.91228 0.47328,-2.08772 0.26865,-1.17036 0.85126,-2.82964 0.0542,-0.26487 0.26487,-2.61912 0.0974,-1.01859 0.0276,-0.0974 0.57468,-3.30033 0.24744,-0.69966 -0.58141,-3.63431 -0.0333,-0.3657 -0.33235,-2.06208 -0.31599,-1.93792 -0.0444,-0.36038 -0.39188,-3.63962 -0.0386,-0.79083 0.041,-3.20917 0.12848,-0.62137 0.62137,-2.0774 0.29516,-1.00607 0.0995,-0.29517 0.82041,-2.78497 0.12776,-1.21503 -0.54242,-3.19963 -0.27557,-0.80037 -0.5248,-0.8589 -2.08884,-3.1411 -1.91116,-3.86016 -0.0879,-0.13983 -0.47885,-0.56675 -2.91956,-3.43326 -0.51369,-0.29574 -0.89172,-0.59597 -3.10829,-1.8188 -1.77587,-1.28949 -2.22413,-1.32575 -3.8398,-2.67425 -0.1602,-0.10399 -0.47688,-0.37289 -3.52312,-2.63801 -1.02741,-0.88511 -2.97259,-2.11093 -2.27401,-1.88907 -1.72599,-1.14679 -3.490622,-2.85321 -0.509378,-0.43531 -1.40225,-0.96694 -2.59775,-1.73997 -1.24554,-0.85778 -2.75446,-1.8898 -2.90653,-2.1102 -1.09347,-1.17899 -2.75232,-2.82101 -1.24768,-1.40034 -3.22545,-2.59966 -0.774553,-0.4561 -0.835254,-0.37916 -3.16475,-0.92878 -3.69317,-1.92913 -0.306833,-0.14534 -0.220268,-0.1615 -0.604758,-0.82502 -2.45308,-3.17497 -0.721892,-1.44683 -1.01106,-2.55317 -0.04262,-1.05369 -0.309582,-2.94631 0.09173,-1.27154 0.587591,-2.72846 0.137284,-0.54667 0.546668,-1.64564 0.363906,-1.44378 0.149016,-0.36391 0.845332,-2.64174 0.693396,-1.35826 0.708894,-1.23946 1.19351,-2.76054 0.02079,-0.0252 0.02516,-0.0472 1.52365,-2.40402 0.835275,-1.52365 0.742929,-0.89815 0.89815,-1.61511 0.569106,-0.91764 0.33675,-0.56911 1.43404,-1.66011 1.52508,-2.33989 0.06248,-0.0725 0.07254,-0.085 1.82922,-2.01327 1.34833,-1.82922 0.385588,-0.43686 0.43686,-0.44223 1.57802,-1.54288 1.38773,-1.57802 0.498221,-0.53603 0.536029,-0.49885 1.55502,-1.4101 1.73938,-1.55502 0.372826,-0.33277 0.332768,-0.32401 1.72252,-1.6207 2.10987,-1.72252 0.09627,-0.0713 0.07133,-0.0575 2.21632,-1.65481 1.78368,-1.39132 0.468888,-0.35612 0.740761,-0.46888 1.71694,-1.07342 1.073422,-0.7899 1.27172,-0.86497 2.06337,-1.27172 0.43826,-0.22665 0.22665,-0.14166 2.42018,-1.21152 1.57982,-0.96612 0.90854,-0.54552 1.83221,-0.90854 0.87973,-0.37952 0.37952,-0.21046 2.28722,-1.12279 1.71278,-0.74923 0.99873,-0.53927 2.18459,-0.99872 0.56413,-0.25256 0.25256,-0.11493 2.49043,-1.14209 1.50957,-0.62891 1.2305,-0.63101 2.53931,-1.2305 0.15778,-0.0724 0.0724,-0.0364 2.66839,-1.22278 1.33161,-0.5892 1.44157,-0.63762 2.55843,-0.95709 0.35303,-0.13145 0.87225,-0.35303 1.99376,-0.78096 0.78096,-0.35062 2.03655,-0.83187 1.96345,-0.78038 0.88528,-0.37089 2.12562,-0.88528 0.71311,-0.27598 0.27599,-0.11333 2.6002,-1.01049 1.3998,-0.57286 1.43411,-0.59323 2.56589,-1.25526 0.12638,-0.0525 0.29698,-0.12639 2.5113,-1.065336 1.06534,-0.294916 2.00903,-0.630714 1.99097,-0.300115 1.32034,-0.388575 2.67966,-0.806067 0.42057,-0.09369 0.95927,-0.420576 1.79455,-0.825604 0.8256,-0.317424 2.00067,-0.856303 1.99933,-0.79903 0.8419,-0.35974 2.47404,-0.841898 0.5105,-0.173568 0.17357,-0.05902 2.72117,-1.04625 1.27883,-0.447122 1.59862,-0.675429 2.40138,-0.963973 0.42913,-0.205518 0.90964,-0.429128 1.83506,-0.826167 0.82617,-0.413156 1.78646,-0.974219 2.21354,-1.25215 0.34231,-0.191996 0.5208,-0.342313 1.96662,-1.17026 1.17026,-0.875146 1.14594,-0.808655 1.3154,-1.14594"
                     id="path8158" />
                  <path
                     d="m -111.961,323.548 0.69684,0.66278 3.30316,3.04032 1.03172,0.95968 2.96828,2.59965 1.58828,1.40035 2.411721,1.96158 2.56593,2.03842 1.43407,1.09442 3.92306,2.90558 0.07693,0.0587 0.241854,0.18317 3.75815,2.93375 1.02804,0.8244 2.97196,2.29631 2.16783,1.70369 1.83217,1.45588 3.15397,2.54412 0.846031,0.67673 3.71029,3.03355 0.289715,0.23828 0.06022,0.0514 3.93978,3.45753 0.586853,0.54247 3.41315,3.17847 0.868577,0.82153 3.13142,2.78324 2.09394,1.21676 1.90606,1.27708 3.37783,2.72292 0.622173,0.46794 3.97401,3.53206 0.026,0.0242 0.17196,0.14775 3.82804,3.31051 0.548098,0.51754 0.603108,1.15121 1.54713,2.84879 1.30166,1.15599 2.98949,1.8335 1.01051,0.66469 0.886392,0.34581 3.11361,1.51277 3.30292,2.48723 0.697076,0.508 0.996909,0.48891 3.00309,1.34575 2.6238,1.65734 1.3762,1.14538 2.54917,2.85462 1.45083,1.26881 3.60767,2.33886 0.392333,0.25735 0.262879,0.13499 3.7371198,1.98848 2.50218,0.5137 1.49782,0.47054 1.62702,1.02727 2.37298,1.68544 3.61821,1.93277 0.381792,0.18315 0.328667,0.19865 3.67133,1.60557 1.77662,0.17104 2.2233802,0.14623 1.53281,-0.39004 2.46719,-0.15741 3.61885,2.24346 0.381149,0.0809 1.56103,0.3002 2.43897,0.21126 0.189957,-0.0213 0.648484,-0.18996 2.04604,-1.11552 1.11552,0.20627 2.94552,-0.14523 1.05448,0.25587 3.25784,0.79861 0.742157,0.25782 0.275309,0.0175 3.05256,-0.27531 0.627892,-0.0442 0.04424,-0.008 3.43857,-0.50893 0.561435,-0.0936 3.13739,-0.20759 0.862614,0.0105 3.17959,0.0317 0.820412,0.031 2.80851,-0.40207 1.19149,-0.0881 2.46245,-0.25794 1.53755,-0.24674 2.29478,0.0791 1.70522,-0.17265 2.20336,0.0812 1.79664,0.0308 1.99389,-0.24024 2.00611,-0.14359 1.47823,-0.37207 2.52177,-0.49079 0.941214,-0.0462 3.05879,-0.71297 0.1877,-0.0405 1.09009,-0.1877 2.38239,-0.33983 0.339824,-0.0854 2.95257,-0.62216 1.04743,-0.2332 2.08246,-0.63691 1.91754,-0.53775 1.20384,-0.34087 2.79616,-1.10822 0.07014,-0.0255 0.195235,-0.0701 2.88335,-0.85127 0.85127,-0.35114 1.98204,-0.81556 2.01796,-0.7719 0.92919,-0.28094 1.72469,-0.92919 0.94796,-0.39817 0.39816,-0.16774 2.74308,-0.69102 1.25692,-0.6858 1.73858,-0.31869 2.26142,-0.76011 0.69587,-0.2826 2.53292,-0.69587 0.61172,-0.1595 0.1595,-0.0572 2.44503,-1.33829 1.55497,-0.58884 1.15839,-0.6978 2.1573,-1.15839 0.43807,-0.24623 0.24623,-0.10183 2.29035,-1.36159 1.70965,-1.05694 0.78017,-0.45323 0.99457,-0.78018 1.33055,-0.89471 0.89471,-0.62496 1.52854,-0.95179 1.83418,-1.52854 0.37331,-0.26397 0.26397,-0.21473 2.20853,-1.31277 1.79147,-1.39884 0.46993,-0.33976 0.55381,-0.46992 1.69201,-1.28425 1.28425,-1.10136 0.9196,-0.69479 1.0515,-0.9196 1.12784,-0.90106 0.90106,-0.76447 1.36904,-0.96544 1.73721,-1.36904 0.52127,-0.37247 0.37248,-0.36074 1.75257,-1.51421 1.38637,-1.75257 0.40367,-0.4574 0.45739,-0.55616 1.50377,-1.48267 2.17344,-1.50377 0.16649,-0.15629 0.15629,-0.24782 1.26939,-2.3265 1.37813,-1.26939 0.73067,-0.6218 0.62181,-0.52225 1.44026,-1.41569 1.35574,-1.44026 0.52093,-0.68307 0.68307,-0.87978 1.08382,-1.35333 0.91439,-1.08382 0.91442,-1.08736 1.08736,-1.55988 0.59828,-0.75449 0.46316,-0.59827 1.34087,-1.5977 1.5977,-1.64214 0.3831,-0.37706 0.33019,-0.38311 1.54828,-1.73843 1.6816,-2.26157 0.0251,-0.0317 0.0317,-0.0433 1.74233,-2.18261 1.29567,-1.74233 0.36848,-0.59353 0.59353,-0.83164 1.0865,-1.48834 0.97413,-1.0865 0.85511,-1.08426 1.08426,-1.26875 0.70774,-0.93925 0.66949,-0.70774 1.17904,-1.44373 1.44373,-1.59537 0.48129,-0.47961 0.57235,-0.48129 1.60121,-1.34515 1.34515,-1.1131 0.73662,-0.80514 0.60469,-0.73662 0.99411,-1.66458 1.66458,-2.0598 0.13398,-0.14163 0.16311,-0.13399 2.05506,-1.64785 1.64785,-1.16533 0.70102,-0.4858 1.10328,-0.70102 1.2681,-0.9276 0.9276,-0.6977 1.46049,-0.91421 2.53951,-1.39805 0.046,-0.0165 0.15888,-0.046 2.94131,-0.85386 0.85385,-0.16519 2.2985,-0.68245 1.7015,-0.41824 1.47233,-0.40793 2.52767,-0.12952 1.40798,0.0652 2.59202,-0.0152 1.12293,-0.26986 2.87707,-0.4131 0.59659,-0.11325 2.10631,-0.59658 1.01835,-0.27876 0.27876,-0.0316 3.25652,-0.43315 0.74348,-0.0362 2.73477,-0.48558 1.26523,-0.18886 2.2296,-0.31631 1.7704,-0.23823 1.83261,-0.15876 2.16739,-0.27043 1.25845,-0.30373 2.74155,-0.53821 0.52664,-0.19359 2.33657,-0.52665 0.89403,-0.24276 0.24276,-0.0557 3.2885,-0.41307 0.7115,-0.12507 2.37846,-0.78497 1.62154,-0.39955 1.44441,-0.53449 2.55559,-0.84229 0.44044,-0.16168 1.20248,-0.44045 1.63942,-0.71765 0.71765,-0.23508 2.04723,-1.00003 1.95277,-0.69423 0.93044,-0.42257 2.06523,-0.93043 0.61311,-0.39122 0.39122,-0.20882"
                     id="path8160" />
                  <path
                     d="m 288.039,224.175 -0.0771,-0.0421 -3.9229,-2.3965 -2.71923,-1.52639 -1.28077,-0.98899 -3.14306,-2.15407 -0.85694,-0.63077 -0.34823,-0.22617 -3.65177,-1.99153 -3.60469,-1.61316 -0.39531,-0.18585 -0.65658,-0.20946 -3.34342,-0.95061 -1.26681,-0.3162 -2.73319,-0.8921 -3.64987,-1.49096 -0.35013,-0.14572 -0.8624,-0.20441 -3.1376,-0.59603 -0.79977,-0.20373 -3.20023,-0.58345 -1.94562,-0.56241 -2.05438,-0.52113 -3.19267,-0.72592 -0.80733,-0.17173 -3.97359,-0.60919 -0.0264,-0.004 -0.1775,-0.0221 -3.8225,-0.49444 -0.55235,-0.0579 -3.44765,-0.44205 -1.09256,-0.0982 -2.90744,-0.42143 -1.83558,-0.32159 -2.16442,-0.26571 -2.19268,-0.0914 -1.80732,-0.0206 -2.823,-0.60967 -1.177,-0.17058 -2.68148,-1.00642 -1.31852,-0.34323 -0.35294,-0.01 -3.07308,0.35295 -0.49981,0.0742 -0.0742,-10e-6 -3.6248,0.30104 -0.3752,-0.0305 -3.80769,-0.15241 -0.1923,-0.0233 -3.7199,0.11112 -0.2801,0.0406 -1.47959,-0.32065 -2.52041,-0.63405 -1.01386,-0.37981 -2.98614,-0.83568 -3.36811,-1.51858 -0.63189,-0.2491 -1.16896,-0.38279 -2.83104,-0.85487 -1.47241,-0.61754 -2.52759,-1.19941 -2.35267,-1.32817 -1.64733,-1.06011 -3.34203,-2.28192 -0.65797,-0.47834 -0.27084,-0.17963 -3.72916,-2.54651 -1.86665,-1.45349 -2.13335,-1.63972 -3.53366,-2.36028 -0.46634,-0.46377 -3.08693,-3.53623 -0.32318,-3.41012 -0.0903,-0.58988 1.00072,-2.49967 0.53595,-1.50033 0.75748,-1.20624 1.20624,-2.69738 0.0334,-0.063 0.0157,-0.0334 1.32426,-2.62668 0.49555,-1.37332 0.71555,-1.41558 1.11857,-2.58442 0.10688,-0.19014 0.19014,-0.26137 1.50109,-2.0474 1.1156,-1.50109 0.61861,-0.7647 0.7647,-0.81669 1.12982,-1.28879 1.13465,-1.12982 0.90506,-0.83048 0.83047,-0.73017 1.27335,-1.166 1.53781,-1.27335 0.6965,-0.49234 0.49233,-0.3588 1.86797,-1.2809 2.13203,-1.55087 0.18702,-0.13009 0.24948,-0.18701 2.29883,-1.26468 1.26468,-0.78076 1.26557,-0.689 1.8178,-1.26557 0.61513,-0.3015 0.3015,-0.16118 2.43517,-1.10215 1.56483,-0.93165 1.02591,-0.47762 1.80078,-1.02591 0.81182,-0.3615 0.3615,-0.17615 2.4109,-1.05144 1.5891,-0.69219 1.25844,-0.46028 2.34136,-1.25844 0.27707,-0.12313 0.12313,-0.052 2.84537,-0.9795 1.15463,-0.51602 1.66579,-0.66356 2.33421,-1.04311 0.43138,-0.1913 0.85704,-0.43138 1.87895,-0.83263 0.83264,-0.42648 1.85346,-0.88743 2.14654,-1.15401 0.46883,-0.23062 0.83681,-0.46883 1.78304,-0.91132 0.91132,-0.54752 1.66659,-0.87458 2.33341,-1.29398 0.24395,-0.12866 0.41471,-0.24395 2.10739,-1.23395 1.23395,-0.71697 1.26585,-0.78323 2.02564,-1.26585 0.42708,-0.28143 0.28143,-0.18654 2.15159,-1.38044 1.84841,-1.25183 0.53861,-0.36115 0.77778,-0.53861 1.56512,-1.11849 1.11849,-0.75107 1.15929,-0.97115 1.28906,-1.15929 0.80534,-0.74632 0.74631,-0.6804 1.22924,-1.34405 0.89119,-1.22924 0.83096,-1.048606 1.04861,-1.61315 0.60104,-0.737208 0.37884,-0.601038 1.20358,-1.81654 1.2939,-2.18346 0.21657,-0.306072 0.30607,-0.546182 1.36785,-1.77989 0.86043,-1.36785 0.78049,-0.991228 0.99123,-1.69259 0.51025,-0.805928 0.28386,-0.510251 1.15279,-2.0531 1.06225,-1.9469"
                     id="path8162" />
                  <path
                     d="m 154.652,480.21 0.8926,-0.49458 0.49458,-0.41817 1.9694,-1.11786 1.97515,-1.9694 0.0333,-0.0222 0.0221,-0.0204 2.47635,-1.48112 1.52365,-1.22967 0.67102,-0.57566 0.81852,-0.67103 1.46866,-1.04179 1.04179,-0.90474 1.09255,-0.96091 1.15506,-1.09255 0.92008,-0.83232 0.83231,-0.81639 1.29225,-1.05904 1.46435,-1.29225 0.72121,-0.52218 0.52219,-0.40464 1.81496,-1.25822 2.12473,-1.81496 0.0371,-0.0232 0.0232,-0.0178 2.54068,-1.41832 1.45932,-1.07747 1.01115,-0.45206 1.40643,-1.01115 1.03999,-0.54243 0.54242,-0.48466 1.91402,-1.05889 2.08598,-1.68772 0.12658,-0.0997 0.16094,-0.12658 2.23311,-1.47937 1.47937,-1.05052 0.90786,-0.56225 1.1986,-0.90786 1.20086,-0.69268 0.69268,-0.48265 1.80185,-1.02282 2.19381,-1.80185 0.003,-0.002 0.002,-0.002 2.12165,-1.87473 1.87835,-1.96308 0.0898,-0.0688 0.10529,-0.0898 2.22455,-1.58035 1.58035,-1.36993 0.64096,-0.40877 0.77964,-0.64095 1.53292,-1.04648 1.04648,-0.94122 1.15112,-0.86118 1.32429,-1.15112 0.87465,-0.64994 0.64994,-0.52762 1.7288,-1.09365 2.2712,-1.62914 0.0567,-0.043 0.0642,-0.0567 2.20073,-1.67842 1.67842,-1.65938 0.36814,-0.29405 0.54717,-0.36814 1.86872,-1.21597 1.21597,-0.79635 1.36344,-0.62424 2.159,-1.36344 0.31133,-0.16622 0.16622,-0.0856 2.60768,-1.14051 1.39232,-0.60186 1.45642,-0.5494 2.54358,-1.10143 0.28795,-0.067 1.32024,-0.28795 1.99009,-0.40171 0.40172,-0.098 2.66267,-0.83758 1.33733,-0.60251 1.37785,-0.68231 2.41971,-1.37785 0.13923,-0.0632 0.0632,-0.0312 2.9468,-0.95875 1.0532,-0.52416 1.50777,-0.91487 1.91578,-1.50777 0.34727,-0.22918 0.22917,-0.14382 2.39693,-1.23007 1.60307,-1.11704 0.83523,-0.44466 1.98971,-0.83523 0.86866,-0.3064 0.3064,-0.14802 2.61245,-0.93313 1.38755,-0.54347 1.531,-0.53799 2.469,-1.27941 0.1879,-0.0637 0.37547,-0.1879 2.4087,-1.02793 1.02793,-0.42792 2.15192,-0.39222 1.84808,-0.49661"
                     id="path8164" />
                  <path
                     d="m -111.961,191.913 0.23258,0.29727 0.2384,0.47098 2.01281,3.52902 1.51621,3.90978 0.0366,0.0902 0.0122,0.0488 1.21588,3.95121 0.31711,1.58178 0.42659,2.41822 0.49188,2.50025 0.27116,1.49975 0.75597,3.52738 0.27247,0.47262 0.20015,0.42491 2.7396,3.5751 1.260402,1.46451 2.97618,2.53549 1.02382,0.65603 1.58522,0.92919 2.41478,1.3562 1.44688,1.05858 2.55312,1.50949 3.14198,2.49051 0.858022,0.57086 3.71613,3.14526 0.283873,0.23705 0.0431,0.0468 0.381498,0.4246 3.26292,3.5754 0.312476,0.34707 2.50523,3.65293 1.49477,2.30685 0.97355,1.69315 1.51295,2.4865 0.97617,1.5135 0.537333,0.79575 2.13808,3.20425 1.86192,2.55443 1.06138,1.44557 2.93862,3.61915 0.320314,0.38085 3.67969,3.87019 0.141967,0.12981 3.85803,3.42039 0.76208,0.5796 3.23792,2.29889 3.07038,1.70111 0.929618,0.5216 1.01729,0.49569 2.98271,1.55825 3.71055,1.42446 0.289451,0.11407 0.167518,0.0534 3.83248,1.11316 1.94385,0.66318 2.05615,0.70704 3.62333,0.97244 0.37667,0.0835 1.27917,0.29318 2.72083,0.66194 0.871409,0.20947 3.12859,0.61055 2.13061,0.64864 1.86939,0.37673 3.7171505,1.20982 0.282847,0.0801 0.738197,0.20277 3.2618,0.96325 1.37473,0.41149 2.62527,0.42382 1.94821,0.14965 2.05179,-0.55418 1.21415,-0.17987 2.78585,-0.88793 0.278023,-0.0482 2.0789595,-0.27802 1.47728,-0.16574 0.165738,-0.0374 3.14158,-0.65524 0.858423,-0.16856 2.66253,-0.31049 1.33747,-0.49531 1.19643,-0.97079 2.80357,-0.97435 0.114741,-0.10734 0.101221,-0.11474 1.56415,-2.21988 2.21988,-1.32061 0.222799,-0.23671 0.10716,-0.2228 1.08268,-2.58736 1.64842,-1.41264 0.319057,-0.61989 0.619888,-0.58928 0.997629,-1.7932 0.189504,-0.99763 0.51389,-2.29898 0.503358,-1.70102 0.137032,-1.65859 0.193806,-2.34141 -0.05667,-1.52145 -0.275759,-2.47855 -0.376681,-2.17389 -0.274661,-1.82611 -1.1096,-3.55815 -0.132916,-0.44185 -0.308936,-0.65865 -1.46133,-3.34135 -2.08148,-3.54281 -0.266456,-0.45719 -0.190731,-0.27018 -2.56161,-3.72982 -1.43839,-1.83452 -1.59906,-2.16548 -2.40094,-3.04542 -0.783619,-0.95458 -3.21638,-3.77972 -0.201174,-0.22029 -1.55406,-1.75523 -1.99205,-2.24477 -0.252712,-0.26769 -3.22107,-3.7323 -0.778932,-0.8881 -2.85412,-3.1119 -1.14588,-1.21188 -2.34071,-2.78812 -1.65929,-1.99921 -2.40469,-2.00079 -1.59531,-1.33468 -3.40051,-2.06583 -0.599492,-0.36434 -0.503297,-0.23515 -3.4967,-1.93701 -3.27673,-1.33972 -0.723266,-0.28189 -1.12567,-0.44138 -2.87433,-1.71005 -2.90694,-2.28995 -1.09306,-2.98679 -0.244834,-1.01321 -0.02769,-0.27252 -0.74549,-3.72748 -0.06279,-1.0808 -0.0782,-2.9192 -0.02141,-1.1804 0.300482,-2.8196 -0.388915,-1.26883 -0.02312,-2.73117 -0.791797,-2.08375 -0.305784,-1.91625 0.272973,-2.11656 0.606265,-1.88344 0.803852,-0.70644 0.706447,-0.86422 0.900536,-1.5288 0.668701,-0.90054 1.52701,-0.90374 0.903748,-0.50041 1.73356,-0.86228 2.26644,-1.42118 0.210031,-0.10235 0.316979,-0.21004 2.42435,-1.04864 1.04864,-0.66124 1.59246,-0.69766 2.4075401,-1.40446 0.125095,-0.0629 0.199167,-0.1251 2.17238,-1.50336 1.50336,-1.11361 0.844963,-0.53807 0.962328,-0.84496 0.981158,-1.21155 1.21155,-1.52125 0.52133,-0.74587 0.400782,-0.52133 1.33433,-1.74356 1.74356,-1.68192 0.317326,-0.25721 0.500548,-0.31732 1.85254,-1.32958 1.32958,-0.76927 1.12622,-0.77492 2.1681499,-1.12622 0.406218,-0.29941 0.299403,-0.17426 1.92176,-1.60458 2.07824,-1.30893 0.334434,-0.27839 0.527868,-0.33444 1.19665,-1.94104 1.94104,-1.51852 0.250351,-0.29009 0.407098,-0.25035 0.877461,-2.46509 2.46509,-1.27428 0.117934,-0.14269 0.294987,-0.11794 2.5512,-1.03587 1.03587,-0.16414 2.03895,-0.76104 1.96105,-0.40543 1.13783,-0.49568 2.86217,-0.93299 0.134963,-0.0699 0.388272,-0.13496 2.68897,-0.7878 0.7878,-0.19182 2.24881,-0.77157 1.75119,-0.61136 1.13613,-0.50132 2.72917,-1.13613 0.101502,-0.0332 0.03319,-0.009 2.95067,-1.00686 1.04933,-0.38829 1.80548,-0.75691 2.19452,-1.18272 0.385478,-0.23727 0.762552,-0.38548 2.00737,-0.8446 0.844597,-0.41009 1.84605,-0.89926 2.15395,-1.17235 0.402912,-0.27079 0.695856,-0.40291 1.96086,-0.94037 0.940367,-0.48954 1.71213,-0.85796 2.28787,-1.3765 0.204994,-0.13064 0.375322,-0.20499 2.33812,-1.08157 1.08157,-0.5679 1.55176,-0.79877 2.44824,-1.53241 0.01216,-0.007 0.02235,-0.0122 2.70228,-1.26321 1.26321,-0.69287 1.34116,-0.70276 2.364171,-1.34116 0.200772,-0.0939 0.0939,-0.0504 2.58896,-1.26677 1.41104,-0.777865 1.23406,-0.577037 2.18546,-1.23406 0.383918,-0.19657 0.19657,-0.110032 2.47328,-1.22012 1.526717,-0.838399 1.11094,-0.523941 2.12364,-1.11094 0.51714,-0.248281 0.24828,-0.135637 2.48917,-1.12691 1.51083,-0.837295 1.13715,-0.51473 2.37918,-1.13715 0.3294,-0.154264 0.15426,-0.08469 2.64142,-1.11962 1.35858,-0.71547 1.39952,-0.526437 2.60048,-0.952338 0.32977,-0.117408 1.02056,-0.32977 1.96356,-0.686118 0.68612,-0.199053 2.43978,-0.675045 1.56022,-0.384279 1.67403,-0.381479 2.32597,-0.37595 1.01011,-0.287966 2.98989,-0.715654 0.22471,-0.06975 1.26969,-0.22471"
                     id="path8166" />
                  <path
                     d="m -111.961,259.538 0.52975,0.67209 2.29199,2.82174 0.93502,1.17826 0.24324,0.29789 3.14319,3.70211 0.85681,1.04811 2.42684,2.95189 1.573156,1.87458 1.80272,2.12542 2.19728,2.5645 1.18923,1.4355 2.81077,3.33194 0.561649,0.66806 3.43835,3.76634 0.211076,0.23366 3.78892,3.62307 0.395501,0.37694 3.6045,3.00695 1.20514,0.99305 2.79486,2.42361 1.94194,1.57639 2.05806,1.68888 2.97533,2.31112 1.02467,0.86727 3.8176,3.13273 0.182397,0.15665 0.834314,0.67767 3.16569,2.61314 0.725541,0.55255 3.27446,2.49303 1.88398,1.50697 2.11602,1.71123 2.81192,2.28877 1.18808,1.03076 3.31607,2.96924 0.683928,0.58669 3.21298,2.62629 0.78702,0.65007 0.171292,0.13695 3.82871,3.32134 0.824622,0.67866 3.17538,2.5001 1.89857,1.4999 2.10143,1.82451 2.86327,2.17549 1.13673,0.77106 2.34356,1.5725 1.65644,1.04715 0.861147,0.60929 3.13885,2.14187 3.66102,1.85813 0.338979,0.22519 1.8847,1.65951 2.1153,1.92487 0.224365,0.19043 3.77563,2.75789 1.197,1.24211 2.803,2.37133 1.93605,1.62867 2.06395,3.14891 0.740948,0.85109 3.25905,2.51471 2.25637,1.48529 1.74363,1.18879 2.2974,1.1086 1.7026,0.85055 2.13086,0.85205 1.86914,0.70825 0.962878,0.25463 3.03712,0.74138 2.01911,0.31485 1.98089,0.36131 2.44153,0.0611 1.55847,0.0395 2.32416,-0.15683 1.67584,-0.14419 2.12076,-0.0592 1.87924,-0.22121 1.8556,-0.0439 2.1444,-0.0801 1.74586,-0.0296 2.25414,0.0828 1.84877,0.0201 2.15123,-0.0148 1.80575,-0.0282 2.19425,-0.0947 1.53331,-0.17773 2.46669,-0.67011 0.736674,-0.12653 2.97105,-0.73667 0.231703,-0.0606 0.06057,-0.0127 3.61871,-0.30806 0.381292,0.0267 3.44157,-0.20381 0.558434,-0.0417 3.65414,0.25432 0.345863,-0.043 3.85445,0.24334 0.14555,-0.0166 2.78679,-1.05106 1.21321,-0.25392 1.73483,-0.79804 2.26517,-0.94514 0.655818,-0.13387 2.691,-0.65582 0.540296,-0.11289 0.11289,-0.0465 2.87317,-0.9674 1.12683,-0.42849 1.76715,-0.67753 2.232857,-0.53813 0.98606,-0.24296 2.07177,-0.98606 0.63646,-0.3057 0.30571,-0.16726 1.94293,-1.58412 1.88925,-1.94293 0.0868,-0.081 0.081,-0.10447 2.69336,-1.12114 1.30664,-0.0234 1.69141,-0.97858 2.08669,-1.69141 0.11591,-0.10599 0.10599,-0.0841 2.08436,-1.72556 1.91564,-1.78393 0.15174,-0.14869 0.12564,-0.15174 1.56076,-2.16186 1.34211,-1.83814 0.333,-0.48674 0.48675,-0.56872 1.21334,-1.7312 2.17625,-1.21334 0.35667,-0.25373 0.25374,-0.12474 2.36146,-1.26006 0.70079,-2.36146 0.28632,-0.65143 0.65143,-0.6381 1.18143,-1.52904 0.68183,-1.18143 0.35286,-1.78387 1.14376,-2.21613 0.18565,-0.45446 0.45447,-0.79944 1.03473,-1.71137 0.90537,-1.03473 0.95748,-1.10241 1.10241,-1.41669 0.57063,-0.91026 0.48629,-0.57063 1.18006,-1.76302 1.76302,-2.09741 0.0584,-0.0812 0.0413,-0.0584 1.39245,-2.50784 1.14291,-1.49216 0.43448,-0.93046 0.93046,-0.63746 0.99365,-1.43842 0.52705,-0.99365 0.49844,-1.98086 1.17064,-2.01914 0.16575,-0.64447 0.64447,-1.00233 0.67465,-1.67855 0.45406,-0.67465 0.3291,-2.54219 0.63062,-1.45781 -0.0159,-1.92748 0.006,-2.07252 0.12689,-1.79412 -0.20012,-2.20588 0.0188,-1.97547 -0.0694,-2.02453 -0.10021,-2.14512 -0.13851,-1.85488 -0.24893,-2.53256 -0.18147,-1.46744 -0.19967,-2.91369 0.0233,-1.08631 0.37716,-2.51325 0.34624,-1.48675 0.45973,-1.70729 0.6258,-2.29271 0.2565,-0.82499 0.52063,-3.17502 0.0306,-0.2738 0.2738,-1.80731 0.25534,-1.66354 0.0288,-0.25535 0.36861,-3.34724 0.0755,-0.65275 0.6539,-2.61789 0.27531,-1.38211 0.0118,-2.33076 -0.15335,-1.66924 -1.16647,-3.65058 -0.0995,-0.34942 -0.24987,-0.38336 -2.45306,-3.61664 -1.54694,-1.56262 -2.22082,-2.43738 -1.77918,-1.78866 -2.01716,-2.21134 -1.98284,-2.03497 -1.7555,-1.96503 -2.2445,-2.21228 -1.62994,-1.78772 -2.37006,-1.80604 -3.60369,-2.19396 -0.39631,-0.29678 -1.06819,-0.77141 -2.93181,-2.17935 -1.28392,-0.75246 -2.71608,-1.67327 -3.39029,-2.32673 -0.60972,-0.42321 -1.25926,-0.83605 -2.74074,-1.82235 -1.52009,-0.91838 -2.47991,-1.62862 -3.10588,-2.37138 -0.89412,-0.78038 -2.03422,-1.25384 -1.96578,-1.34766 -0.76894,-0.61812 -3.23106,-3.07986 -1.269447,-0.92014 -1.07784,-2.34728 -1.08969,-1.65272 -0.563034,-0.50566 -2.73756,-2.2319 -1.26244,-1.01948 -0.301578,-0.24296 -1.34301,-1.64459 -1.89764,-2.35541 -0.457767,-0.8605 -1.75549,-3.1395 -1.00797,-2.76346 -0.438414,-1.23654 -0.798127,-2.57824 -0.471917,-1.42176 -0.01764,-0.48955 -0.526849,-3.51045 0.13247,-0.88394 0.458344,-3.11607 0.141848,-0.28374 0.28374,-0.76609 0.827529,-2.12264 0.264302,-0.82753 1.07453,-1.83364 1.16928,-2.16636 0.270089,-0.39427 0.394274,-0.55884 1.26644,-1.78045 0.804122,-1.26644 0.785373,-1.14406 1.14406,-1.4752 0.594775,-0.78597 0.449951,-0.59477 1.28884,-1.66644 1.66644,-1.97171 0.163287,-0.19857 0.140795,-0.16328 1.82939,-1.86653 1.866524,-1.65646 0.25188,-0.22513 0.31069,-0.25188 1.88353,-1.55391 1.55391,-1.16638 0.6868,-0.5929 0.79998,-0.68681 1.37338,-1.13983 1.13983,-0.86759 1.14845,-0.84413 1.67537,-1.14845 0.73182,-0.44436 0.44436,-0.27137 2.03192,-1.25235 1.96808,-1.25279 0.48595,-0.29317 0.80604,-0.48595 1.74463,-0.96338 0.96338,-0.59769 1.54862,-0.89032 2.45138,-1.4468 0.0664,-0.0354 0.12693,-0.0664 2.58871,-1.21794 1.21794,-0.62719 1.43337,-0.72149 2.51364,-1.43337 0.0349,-0.0181 0.0181,-0.009 2.73502,-1.23836 1.26498,-0.63825 1.46596,-0.63082 2.53404,-1.15802 0.21259,-0.0953 0.50971,-0.21259 2.37624,-0.90146 0.90146,-0.38952 1.89566,-0.81336 2.10434,-0.92709 0.6928,-0.27577 1.68909,-0.6928 1.16819,-0.44991 0.44991,-0.18559 2.40755,-0.95694 1.59245,-0.64661 1.27762,-0.48332 2.72238,-1.05614 0.16048,-0.061 0.39246,-0.16048 2.43263,-1.01444 1.01444,-0.37921 1.86508,-0.74128 2.13492,-0.81341 0.75688,-0.29478 1.61367,-0.75689 1.13505,-0.49439 0.4944,-0.11633 2.67382,-0.71546 1.32618,-0.57261 1.55498,-0.54623 2.44502,-1.13683 0.2846,-0.13355 0.63268,-0.2846 2.16644,-0.916278 0.91628,-0.392357 1.79652,-0.894847 2.20348,-1.0447 0.50783,-0.243986 0.89344,-0.507835 1.74414,-0.854584 0.85459,-0.433427 1.81299,-0.898994 2.18701,-1.35228 0.30363,-0.15708 0.47919,-0.303632 2.11773,-1.09945 1.09945,-0.659392 1.44102,-0.800139 2.0511,-1.44102 0.3102,-0.197677 0.19768,-0.151864 2.20777,-1.44269 1.79223,-1.46244 0.43818,-0.307148 0.48678,-0.438188 1.66986,-1.40517 1.40517,-1.42329 0.62359,-0.54795 0.56977,-0.623582"
                     id="path8168" />
                  <path
                     d="m -111.961,361.438 2.06929,0.84177 1.93071,0.84891 2.58745,1.08181 1.41255,0.57864 1.00445,0.42581 2.99555,1.44762 2.9949,1.54793 1.0051,0.53042 1.14313,0.61271 2.85687,1.62274 2.12984,1.23413 1.87016,1.06698 2.59279,1.52581 1.40721,0.87138 0.81798,0.53583 3.18202,2.08517 2.65769,1.91483 1.34231,0.98121 3.70363,3.01879 0.296366,0.25224 1.80173,1.54949 2.19827,1.92102 0.325766,0.27725 3.67423,3.37184 0.639402,0.62816 3.3606,3.50798 0.495094,0.49201 3.50491,3.17393 0.992182,0.82607 3.00782,2.44488 1.87556,1.55512 2.12444,1.70295 3.42204,2.29705 0.577959,0.33 0.848753,0.51876 3.15125,1.94127 1.60051,1.20997 2.39949,1.5242 2.83403,1.30983 1.16597,0.54186 1.38703,0.62411 2.61297,1.34803 3.56798,2.65197 0.432024,0.2556 0.537068,0.28147 3.46293,1.02208 2.34687,2.44085 1.65313,1.18964 1.5853,0.39566 2.4147,0.99387 3.19522,0.61605 0.804778,0.23701 3.33979,0.56777 0.660205,0.24427 0.471139,0.22687 3.52886,2.21093 2.77734,1.31793 1.22266,0.49032 0.641147,0.15082 3.35885,0.87818 1.74151,0.22218 2.25849,0.3592 2.33869,0.23799 1.66131,0.11286 2.8867,0.43515 1.1133,0.0692 3.63036,0.67444 0.369643,0.0526 1.77795,0.31708 2.22205,0.42098 0.504201,0.0832 3.4958,0.61232 1.34555,0.22902 2.65445,0.44335 2.16457,0.37568 1.83543,0.1586 2.51016,0.18699 1.48984,0.0679 2.61374,0.0357 1.38626,0.0799 2.58782,-0.10586 1.41218,0.0623 2.40663,-0.24353 1.59337,-0.13533 2.05412,-0.21717 1.94588,-0.36568 1.68453,-0.004 2.31547,-0.42225 1.30122,0.0389 2.69878,-0.11445 1.10526,-0.0815 2.89474,0.0808 1.05372,-0.13235 2.94628,-0.40049 0.555062,-0.0982 3.44494,-0.0753 0.381621,-0.0982 1.46003,-0.38162 1.62152,-0.53683 0.536829,-0.0297 2.52203,-0.91148 1.47797,-0.32545 1.91077,-0.28581 2.08923,-0.62597 1.27133,-0.0135 2.72867,-0.38565 0.780681,-0.105 3.21932,-0.52406 0.19701,-0.0596 2.38169,-0.19701 1.29796,-0.12334 0.12334,-0.0198 2.65686,-1.19995 1.34314,-0.34057 1.41397,-0.90232 2.58603,-1.15945 0.16764,-0.0869 0.19484,-0.16764 1.84421,-1.79331 1.79331,-1.60362 0.27997,-0.3231 0.31802,-0.27997 1.66324,-1.73876 1.73876,-1.95248 0.16069,-0.14806 0.22475,-0.1607 2.42499,-1.18957 1.18957,-1.03096 1.16568,-0.61378 1.71909,-1.16568 0.75345,-0.36178 0.36178,-0.284 2.1096,-1.24462 1.8904,-1.53327 0.30595,-0.27038 0.40089,-0.30595 2.03351,-1.25965 1.25965,-0.9232 1.18853,-0.62862 1.89695,-1.18853 0.61028,-0.30424 0.30423,-0.20272 2.79388,-0.69916 1.20612,-0.66651 1.3216,-0.80578 1.7409,-1.3216 0.56736,-0.37015 0.37014,-0.35535 1.80987,-1.46463 2.19013,-1.57401 0.1173,-0.11857 0.16262,-0.11729 2.06198,-1.65811 1.65811,-1.42239 0.45753,-0.46197 0.48921,-0.45754 1.64695,-1.40631 1.40631,-0.89063 1.0048,-0.69826 1.34142,-1.0048 0.93846,-0.71532 0.71532,-0.4296 1.66382,-1.19127 2.11836,-1.66382 0.11193,-0.10589 0.10589,-0.0793 2.04628,-1.76857 1.95372,-1.42745 0.3423,-0.27653 0.42824,-0.3423 1.57716,-1.65229 1.65229,-1.50374 0.40584,-0.43812 0.44973,-0.40585 1.42121,-1.72322 1.72322,-1.44119 0.43555,-0.40003 0.49877,-0.43555 1.48102,-1.58465 1.58466,-1.66036 0.36533,-0.38965 0.4002,-0.36534 1.68397,-1.5505 1.5505,-1.84507 0.27373,-0.3307 0.25065,-0.27373 1.76838,-1.70724 1.70724,-1.63268 0.33343,-0.32665 0.37848,-0.33343 1.73842,-1.54966 1.54966,-1.51443 0.48323,-0.45267 0.46794,-0.48323 1.53788,-1.51095 1.51095,-1.62182 0.42515,-0.44208 0.44259,-0.42515 1.50789,-1.62437 1.62437,-1.48583 0.47192,-0.41789 0.71769,-0.47191 1.58567,-1.22473 1.22473,-0.93361 1.08119,-0.76048 1.42512,-1.08119 0.848,-0.64569 0.6457,-0.56968 1.49922,-1.2854 2.08039,-1.49922 0.2454,-0.17498 0.17498,-0.12972 2.23615,-1.45915 1.76385,-1.25292 0.52155,-0.46168 0.82863,-0.52155 1.578,-1.07182 1.07182,-0.63729 1.55439,-0.73651 2.44561,-1.51797 0.0216,-0.0148 0.0336,-0.0216 2.38554,-1.55919 1.55919,-0.8109 1.03644,-0.59348 2.24119,-1.03644 0.50158,-0.22079 0.22079,-0.0466 3.16722,-0.56539 0.83278,-0.10304 2.81625,-0.24794 1.18375,-0.80994 1.16001,-0.84629 2.83999,-0.99875 0.11005,-0.0512 0.3028,-0.11005 2.63791,-0.94924 0.94924,-0.29744 2.02315,-0.73017 1.97685,-0.50581 1.15493,-0.36241 2.84507,-0.97182 0.13417,-0.0489 0.34758,-0.13417 2.48916,-1.02909 1.02909,-0.32248 1.91695,-0.73148 2.08305,-0.71952 0.86651,-0.33091 2.39846,-0.86652 0.54187,-0.19316 0.19316,-0.0691 2.83998,-0.89775 1.16002,-0.36733 1.87381,-0.59884 2.12619,-0.61866 0.94544,-0.3097 2.49753,-0.94545 0.40694,-0.15009 0.15009,-0.0585 2.62092,-1.17048 1.37908,-0.66435"
                     id="path8170" />
                  <path
                     d="m 288.039,167.96 -0.18145,0.069 -0.78063,0.18146 -2.40461,0.6333 -0.63331,0.138 -2.0539,1.17479 -1.9461,0.74599 -0.9056,0.40231 -2.30965,0.9056 -0.55197,0.23278 -0.23278,0.0825 -2.59637,1.08832 -1.40363,0.44626 -1.73983,0.41028 -2.26017,0.61279 -0.98349,0.14355 -3.01651,0.59981 -0.3287,0.055 -1.48348,0.3287 -1.79192,0.39591 -0.39591,0.11574 -3.07706,0.4113 -0.92294,0.13149 -2.77201,0.17356 -1.22799,0.0959 -2.62295,0.0531 -1.37705,-0.0184 -2.66005,-0.0187 -1.33995,-0.0864 -2.90021,-0.1538 -1.09979,-0.15368 -3.41751,-0.36362 -0.58249,-0.0837 -3.96445,-0.46322 -0.0356,-0.005 -0.22151,-0.0306 -3.77849,-0.57893 -0.58797,-0.009 -3.41202,-0.0365 -0.67812,-0.0537 -3.32188,0.28048 -0.5134,-0.11577 -3.4866,-0.18062 -1.16399,-0.46997 -2.83601,-1.00195 -3.44777,-1.28183 -0.55223,-0.20882 -0.9321,-0.34341 -3.0679,-1.15002 -1.789,-0.63898 -2.211,-0.8227 -2.90629,-1.3883 -1.09371,-0.91092 -2.53925,-3.08908 -0.30735,-2.8466 -0.36819,-1.1534 1.13041,-2.08438 0.55578,-1.91562 0.75513,-0.77348 0.77347,-0.99352 1.10616,-1.12684 0.74249,-1.10616 1.17614,-0.97521 0.97521,-0.97525 1.14885,-0.9007 1.15763,-1.14885 1.01181,-0.6817 0.68171,-0.55136 1.70209,-1.06485 2.23527,-1.70209 0.0388,-0.0238 0.0238,-0.0164 2.53728,-1.42251 1.46272,-0.92725 0.97467,-0.63535 1.58708,-0.97467 0.95265,-0.4856 0.4856,-0.30008 1.9712,-1.24313 2.0288,-1.41192 0.36337,-0.19591 0.52248,-0.36336 1.99979,-1.11437 1.11437,-0.72455 1.40047,-0.76062 1.99101,-1.40047 0.38527,-0.22325 0.22325,-0.12822 2.40377,-1.24475 1.59623,-1.16263 0.87387,-0.36727 1.34946,-0.87387 1.2058,-0.57087 0.57088,-0.40303 2.01805,-1.00805 1.98195,-1.41848 0.38585,-0.21372 0.48397,-0.38585 1.93669,-1.19348 1.19348,-1.08343 1.10727,-0.61581 1.48855,-1.10727 0.89869,-0.50548 0.50548,-0.43928 1.75412,-1.30112 1.82137,-1.75412 0.23645,-0.18806 0.18806,-0.18559 1.92859,-1.69776 1.52277,-1.92859 0.27464,-0.274 0.27401,-0.38072 1.71794,-1.62733 1.19848,-1.71794 0.52473,-0.55884 0.55884,-0.8422 1.23999,-1.35898 0.73119,-1.23999 0.90588,-1.12294 1.12294,-2.18492 0.29512,-0.39701 0.14573,-0.29512 1.54044,-2.018708 0.92876,-1.98129 0.42967,-0.660273 0.66028,-1.41644 0.77374,-1.14954 0.35742,-0.77374 1.11858,-1.75026 0.97687,-2.24974 0.30877,-0.464616 0.46462,-1.04849 0.99661,-1.49028 0.41294,-0.996611 1.08666,-1.50379 1.39836,-2.49621"
                     id="path8172" />
                  <path
                     d="m 38.4805,80.2103 1.55882,0.733837 1.03832,0.304479 2.96168,0.992637 2.44677,0.415817 1.55323,0.362781 2.91643,0.106883 1.08357,0.148527 2.80636,-0.258598 1.19364,0.03907 2.33026,-0.515165 1.66974,-0.113006 1.87743,-0.339832 2.12257,-0.371513 1.10545,-0.400459 2.89455,-0.756822 0.252454,-0.09618 0.78,-0.252454"
                     id="path8174" />
                  <path
                     d="m -111.961,221.669 1.80562,2.54129 2.19438,2.83574 0.96297,1.16426 3.03703,3.41542 0.57804,0.58458 3.421961,3.44912 0.618244,0.55087 3.38176,3.26724 0.84805,0.73276 3.15195,2.85948 1.38569,1.14052 2.61431,2.37645 1.87161,1.62355 2.12839,2.04142 1.9406,1.95858 2.0594,2.25095 1.56664,1.74905 2.43336,2.96534 0.802148,1.03466 3.11763,3.91978 0.06407,0.0802 0.01615,0.019 3.06409,3.98096 0.935906,1.1502 2.3881,2.8498 1.6119,1.82666 2.04268,2.17334 1.95732,1.82269 2.72703,2.17731 1.27297,0.96261 3.4388,2.47619 0.561198,0.39569 0.273275,0.16551 3.72673,2.20178 3.16127,1.79822 0.838726,0.47465 1.1025,0.62785 2.8975,1.56665 2.94093,1.33084 1.05907,0.50352 0.96856,0.46504 3.03144,1.35653 3.84427,1.67491 0.155729,0.0753 0.139681,0.0644 3.86032,1.8105 3.23736,1.28718 0.762643,0.27524 1.12639,0.48741 2.87361,1.23866 2.14935,0.91069 1.85065,0.75019 2.6798497,1.10046 1.32015,0.53856 1.12108,0.58252 2.87892,1.42925 2.45749,1.44967 1.54251,0.90169 2.41614,1.51444 1.58386,0.94807 1.44269,0.6358 2.55731,1.11192 1.72091,0.60899 2.2790903,0.80097 3.59829,1.07641 0.401712,0.11045 1.50424,0.29126 2.49576,0.56869 0.611393,0.0427 3.38861,0.28206 1.06759,0.17414 2.93241,-0.34337 0.59084,-0.13338 1.13886,-0.59084 1.60862,-0.66167 0.661672,-0.68029 1.42822,-1.22982 1.68189,-1.42822 0.482201,-0.40769 0.407689,-0.62842 1.11079,-1.85311 0.936079,-1.11079 0.870566,-1.08257 1.08257,-1.55368 0.77491,-0.58884 0.412702,-0.77491 1.24642,-1.56597 1.04944,-2.43403 0.178576,-0.33796 0.337955,-0.66216 1.20041,-1.79946 0.511671,-1.20041 0.86108,-1.42684 0.943066,-2.57316 0.164365,-0.31941 0.319405,-0.75971 1.0472,-1.87369 0.372634,-1.0472 0.933261,-1.64691 0.63914,-2.35309 0.261436,-0.74633 0.746333,-2.37765 0.246798,-0.62923 0.06038,-0.2468 0.765109,-2.92772 0.25329,-1.07228 0.710767,-1.96366 0.551955,-2.03634 0.254896,-1.15681 1.15681,-2.69943 0.04172,-0.10204 0.02375,-0.0417 1.15376,-2.78077 0.64317,-1.21923 0.436606,-1.70099 0.869357,-2.29901 0.097,-0.73463 0.734636,-1.22294 0.760859,-1.28156 0.607999,-0.76086 1.1903,-1.44084 1.44084,-0.87607 0.922882,-0.76021 1.51558,-0.92289 0.994908,-0.56663 0.566632,-0.45013 1.6228,-1.36044 1.71144,-1.6228 0.332124,-0.33364 0.333643,-0.44628 1.20617,-2.0139 0.48151,-1.20617 -0.07891,-2.39122 0.03154,-1.60878 -1.64032,-2.62986 -1.60302,-1.37014 -2.39698,-1.68087 -2.75056,-1.06968 -1.24944,-0.49571 -2.07467,-0.75374 -1.92533,-0.68012 -0.939417,-0.25929 -3.06058,-1.13735 -2.82121,-0.74445 -1.17879,-0.35716 -1.83675,-0.82162 -2.16325,-0.83716 -1.90768,-1.07052 -2.09232,-1.08756 -1.81656,-1.00475 -2.18344,-1.01001 -1.34557,-0.33557 -2.65443,-0.69549 -3.13384,-1.09278 -0.866157,-0.38947 -0.709213,-0.47668 -3.29079,-2.3142 -1.39376,-1.6858 -2.60624,-3.59712 -0.347424,-0.40288 -2.56192,-2.90935 -0.957642,-1.09065 -0.133012,-0.14282 -3.48677,-3.85717 -0.513234,-0.7328 -2.29533,-3.26721 -1.70467,-3.33731 -0.357017,-0.66269 -0.890349,-1.24737 -1.6451901,-2.75263 -1.10744,-1.16079 -2.1643,-2.83921 -1.8357,-3.48694 -0.225081,-0.51306 0.022816,-0.20226 -0.204415,-3.79774 0.14687,-0.25981 0.259809,-0.41529 1.5171,-1.80781 0.836678,-1.5171 0.771575,-0.87465 0.874649,-0.68454 1.26682,-1.17399 1.3195901,-1.26682 0.716248,-0.69734 0.69734,-0.52657 1.43841,-1.33767 1.7543,-1.43841 0.428172,-0.37912 0.379121,-0.33367 1.69312,-1.59409 1.90668,-1.69312 0.213243,-0.18695 0.186952,-0.17617 1.93731,-1.69957 1.81278,-1.93731 0.123626,-0.12628 0.126281,-0.1241 1.90448,-1.84514 1.88639,-1.90448 0.102311,-0.10683 0.106824,-0.0984 1.95677,-1.83801 1.88499,-1.95677 0.07421,-0.084 0.08402,-0.0794 1.94561,-1.89093 2.05439,-1.7416 0.09692,-0.1071 0.118769,-0.0969 1.95884,-1.82547 1.82547,-1.28836 0.500595,-0.38557 0.78143,-0.50059 1.6116,-1.10638 1.10638,-0.78088 1.19039,-0.92236 1.42812,-1.19039 0.796559,-0.58494 0.584934,-0.42268 1.80462,-1.18776 2.19538,-1.68424 0.06969,-0.0507 0.07991,-0.0697 2.30508,-1.54532 1.54532,-0.98464 0.870082,-0.59996 1.07761,-0.87008 1.2277,-0.8246 0.824603,-0.54101 1.52933,-1.10506 1.86983,-1.52933 0.337888,-0.26294 0.262945,-0.17434 2.06444,-1.49828 1.93556,-1.53548 0.293392,-0.23557 0.388139,-0.29339 1.96841,-1.35006 1.35006,-0.89606 1.02019,-0.73369 1.38311,-1.02019 0.905107,-0.6916 0.691598,-0.40744 1.71148,-1.18949 2.28852,-1.51473 0.120588,-0.0762 0.184566,-0.12059 2.27067,-1.42418 1.42418,-0.76675 1.15803,-0.65104 1.91423,-1.15803 0.555446,-0.3723 0.372298,-0.21133 2.08521,-1.33115 1.91479,-0.95648 0.730337,-0.3984 1.42794,-0.73034 1.16237,-0.67935 0.67935,-0.32319 1.92673,-1.07073 2.073272,-1.00884 0.59513,-0.32276 1.2613,-0.59513 1.38256,-0.761 0.761,-0.32422 1.99778,-0.917 2.00222,-0.82888 0.77654,-0.39235 1.76913,-0.77655 0.9455,-0.508823 0.50883,-0.18909 2.24992,-1.05216 1.75008,-0.692081 1.13646,-0.421377 2.86354,-0.906885 0.16229,-0.06729 0.41354,-0.162286 2.36678,-1.05738 1.05738,-0.338013 1.86757,-0.737031 2.13243,-0.69656 0.8617,-0.309316 3.13831,-0.858233 0.003,-9.16e-4 0.007,-0.0025 2.86786,-1.12253 1.12253,-0.320364 1.87285,-0.684256 2.12715,-0.637053 0.91451,-0.321289 3.08549,-0.903089 0.008,-0.0031 0.0222,-0.0083 2.89628,-1.07315 1.07315,-0.446524 1.26156,-1.21876 0.91076,-1.26156 0.79469,-1.03299 1.03299,-0.733335 3.77277,1.5391 0.22723,0.05787 2.80821,-1.02243 1.19179,-0.316256 1.84011,-0.651843 2.15989,-0.734747 0.85759,-0.247775 3.14241,-0.754346 0.079,-0.02422 0.23879,-0.07903"
                     id="path8176" />
                  <path
                     d="m -111.961,278.407 1.72628,1.80284 2.27372,2.19625 1.80168,1.80375 2.19832,2.15368 1.88457,1.84632 2.11543,2.13908 1.84168,1.86092 2.15832,2.08433 2.10453,1.91567 1.89547,1.88853 2.20039,2.11147 1.79961,1.75683 2.34943,2.24317 1.65057,1.67279 2.49288,2.32721 1.50712,1.4984 2.59502,2.5016 1.40498,1.36735 2.80969,2.63265 1.19031,1.06274 3.61298,2.93726 0.387015,0.29897 1.29648,0.99751 2.70352,2.08492 0.789539,0.6186 3.21046,2.49203 1.87922,1.50797 2.12078,1.75307 2.57496,2.24693 1.42504,1.38961 2.79238,2.61039 1.20762,1.15146 3.5162,2.84854 0.4838,0.49171 3.15048,3.5083 0.849524,0.4968 1.11899,0.62219 2.88101,1.15155 2.07358,1.72946 1.92642,1.61209 2.81274,2.38791 1.18726,1.04789 2.83329,2.95211 1.16671,0.76518 2.52673,1.76155 1.47327,0.78655 1.0843,0.68671 2.9157,1.92238 3.91409,2.07762 0.08591,0.0422 0.126185,0.084 3.8738205,2.3688 3.07856,1.50501 0.921438,0.61089 2.11431,3.38911 1.88569,1.4739 2.92069,2.5261 1.07931,0.96359 2.02224,1.05865 1.97776,1.11881 2.2174395,0.85895 1.78256,0.63613 0.957614,0.32149 3.04239,1.02289 2.78667,0.80616 1.21333,0.37059 2.99029,0.84275 1.00971,0.31781 0.394031,0.0762 3.60597,0.79271 1.33919,0.15245 2.66081,0.33039 1.91397,0.24439 2.08603,0.24734 2.20733,0.046 1.79267,0.091 2.42365,0.12531 1.57635,0.0623 2.78901,0.30308 1.21099,-0.027 2.57817,-0.18385 1.42183,0.0565 2.70562,0.0709 1.29438,0.0808 2.65798,-0.12846 1.34202,-0.0464 2.4419,-0.16964 1.5581,-0.26637 2.28673,0.11119 1.71327,0.0513 2.29254,-0.0455 1.70746,-0.10672 1.88287,-0.30295 2.11713,-0.20767 1.53543,-0.13978 2.46457,-0.42493 0.989721,-0.12078 3.01028,-0.34926 0.523831,-0.11663 3.47617,-0.48251 0.03284,-0.008 0.144727,-0.0328 3.0632,-0.75922 0.759226,-0.19047 2.39523,-0.65508 1.60477,-0.48758 1.37862,-0.52903 2.621379,-1.25906 0.0815,-0.038 0.58094,-0.0815 2.86064,-0.47691 0.47691,0.0448 3.20577,-0.36216 0.79424,-0.34278 1.79022,-1.07277 2.20978,-1.22716 0.35808,-0.20497 0.65903,-0.35809 1.80209,-1.18079 1.18079,-0.6538 1.28593,-0.87947 2.1069,-1.28593 0.33885,-0.26832 0.26832,-0.15809 1.90084,-1.67275 2.09916,-1.69416 0.1112,-0.0955 0.13,-0.1112 1.97219,-1.78662 1.78662,-1.7323 0.2531,-0.22799 0.27277,-0.2531 1.77888,-1.69525 1.69525,-1.66994 0.32168,-0.31315 0.44356,-0.32167 1.65435,-1.58041 1.58041,-0.93295 0.83825,-0.64839 1.15166,-0.83825 0.84821,-1.16188 1.16188,-0.40124 1.50293,-0.93395 0.6929,-1.50293 0.95245,-0.85173 0.0529,-3.14827 -0.87511,-1.67395 1.67395,-1.6842 0.14892,-0.49293 0.14444,-0.14892 1.85813,-1.84851 1.84851,-2.09404 0.0306,-0.0269 0.0298,-0.0306 1.65246,-2.28717 1.61418,-1.71283 0.31447,-0.35853 0.35852,-0.41505 1.77289,-1.45353 1.66686,-1.77289 0.27696,-0.28329 0.28329,-0.27576 1.72041,-1.72055 1.22485,-1.72041 0.41314,-0.6416 0.64161,-2.60153 0.14436,-0.6125 0.0423,-0.14436 0.70204,-3.11134 0.79044,-0.88866 1.07719,-1.2437 1.2437,-2.00357 0.28762,-0.46512 0.1164,-0.28761 1.41737,-2.17861 0.93861,-1.82139 0.21524,-1.02476 1.02476,-2.89594 0.0185,-0.0608 0.006,-0.0185 1.2994,-2.67653 0.91627,-1.32347 0.54825,-1.212 1.212,-2.3764 0.13618,-0.27542 0.0453,-0.13618 0.4898,-3.32876 0.12598,-0.67123 0.74412,-2.45866 0.82801,-1.54134 0.15574,-1.47491 0.49342,-2.52509 -0.0254,-1.00691 0.13844,-2.99309 0.0706,-0.79788 0.27255,-3.20212 0.08,-0.44529 0.44529,-1.82687 0.33168,-1.39615 0.0709,-0.33168 0.37339,-3.22404 0.0664,-0.77597 0.10231,-3.05535 0.0817,-0.94465 0.0465,-2.92718 0.11132,-1.07282 0.36241,-2.45345 0.20466,-1.54655 0.31008,-1.93871 0.3079,-2.06129 0.10125,-1.52956 -0.21527,-2.47044 -0.44742,-2.19225 -0.52459,-1.80775 -1.28316,-2.33274 -0.86845,-1.66726 -1.9119,-2.78035 -0.78472,-1.21965 -0.43493,-0.55552 -2.94734,-3.44448 -1.05266,-1.19366 -2.52758,-2.80634 -1.47242,-1.59976 -2.28875,-2.40024 -1.71125,-1.81792 -2.01121,-2.18208 -1.98879,-1.84107 -2.65945,-2.15893 -1.34055,-0.98623 -3.4751,-2.48887 -0.52489,-0.38885 -0.1896,-0.13605 -3.81041,-2.98386 -1.34825,-1.01614 -2.65175,-1.93636 -2.90197,-2.06364 -1.09803,-0.70963 -2.10803,-1.3984 -1.89197,-1.24844 -0.94106,-0.64352 -3.05893,-2.11076 -2.89221,-1.88924 -1.10779,-0.68068 -2.66605,-1.98538 -1.33395,-0.96397 -0.5137,-0.36997 -3.4863,-2.60049 -1.80211,-1.39951 -2.19789,-1.65496 -2.57416,-2.34504 -1.42584,-1.8248 -1.80898,-2.1752 -2.19102,-3.79831 -0.10779,-0.20169 -0.0412,-0.14897 -1.04633,-3.85103 0.0318,-1.16345 0.0597,-2.83655 -0.008,-1.11126 0.40471,-2.88874 0.0536,-0.65293 0.44895,-3.34707 0.0303,-0.17371 0.17371,-0.75136 0.53942,-2.53551 0.13476,-0.53942 0.73358,-2.59224 0.41962,-1.40776 0.7855,-1.38712 1.30113,-2.61288 0.0372,-0.0487 0.0488,-0.0699 1.65291,-2.22842 1.40124,-1.65291 0.49695,-0.44889 0.44889,-0.50372 1.49791,-1.54947 1.37948,-1.49791 0.61355,-0.50907 0.50906,-0.48755 1.62119,-1.38219 1.6772,-1.62119 0.39918,-0.30244 0.30244,-0.243 1.99864,-1.45592 2.00136,-1.51264 0.28522,-0.20078 0.39655,-0.28523 2.09754,-1.22068 1.22068,-0.75341 1.30315,-0.72275 1.9536,-1.30315 0.4769,-0.26634 0.26634,-0.15319 2.36757,-1.21291 1.63243,-0.90722 0.98973,-0.47062 1.83821,-0.98972 0.79157,-0.3805 0.38049,-0.18644 2.32455,-1.10851 1.67545,-0.86098 0.99392,-0.46966 1.92169,-0.99392 0.73546,-0.34893 0.34893,-0.15842 2.51435,-0.9783 1.48565,-0.65727 1.26874,-0.58833 2.58571,-1.26874 0.10004,-0.0455 0.0455,-0.0212 2.82176,-1.11153 1.17824,-0.47011 1.66006,-0.69159 2.33994,-0.96399 0.48499,-0.21109 1.20326,-0.48498 1.6601,-0.65166 0.65166,-0.26579 2.12849,-0.95406 1.87151,-0.81176 0.92314,-0.39359 2.11289,-0.92314 0.68297,-0.281 0.281,-0.11126 2.45543,-1.15231 1.54457,-0.90211 1.06046,-0.49286 2.78432,-1.06046 0.11852,-0.0367 0.0367,-0.0156 3.11634,-0.83133 0.88366,-0.43146 1.85935,-0.82553 2.14065,-1.29028 0.36955,-0.19953 0.66066,-0.36954 1.97126,-0.99853 0.99853,-0.59565 1.53081,-0.87501 2.4263,-1.53081 0.0277,-0.0152 0.0152,-0.009 2.54462,-1.430924 1.45538,-0.972108 0.99854,-0.573971 1.45136,-0.998539 0.97366,-0.576446 0.57644,-0.385541 1.91004,-1.12797 2.08996,-1.53681 0.22405,-0.149181 0.27306,-0.22405 2.04211,-1.46078 1.46078,-1.26397 0.74537,-0.529888 0.84757,-0.745365 1.35016,-1.0569 1.0569,-0.985006 1.07452,-0.883578 1.0992,-1.07452 0.94824,-0.878032 0.87804,-0.919672 1.12177,-1.08053 1.00939,-1.12177"
                     id="path8178" />
                  <path
                     d="m -111.961,448.018 0.88681,0.19236 3.11319,0.54028 0.67511,0.13482 3.3249,0.21633 1.06311,0.17169 2.936885,0.29431 1.61234,0.25491 2.38766,0.48147 3.80272,1.70891 0.197282,0.1023 0.201732,0.095 3.79827,1.76929 2.56652,0.79723 1.43348,0.51623 2.55977,0.91725 1.44023,0.45414 0.599418,0.14528 3.40058,0.96155 2.80505,2.43903 1.19495,1.02783 1.00461,-0.0232 2.99539,0.0556 1.17307,0.11283 2.82693,0.10431 1.52517,0.24779 2.47483,0.38183 2.68616,0.77916 1.31384,0.56804 2.97475,0.7458 1.02525,0.26594 0.352929,0.087 3.64707,1.18222 1.8048,0.26965 2.1952,0.57335 2.54514,0.16699 1.45486,0.18709 3.14908,0.41685 0.850924,0.0738 3.26499,0.0421 0.735008,0.0271 3.80617,0.51411 0.19383,0.0187 2.14708,0.1751 1.85292,0.15301 0.154193,10e-4 3.84581,0.26198 0.415046,-10e-4 3.58495,0.13122 0.561546,0.0153 3.43845,0.20363 0.774883,0.01 3.22512,0.12667 1.1433,0.24175 2.8567,0.1665 1.77715,0.46735 2.22285,0.79134 1.9917,-0.57679 2.0083,0.0489 1.77614,-0.26447 2.22386,-0.30803 1.46267,-0.005 2.53733,-0.0971 1.47896,0.11336 2.52104,0.34407 2.13886,0.31582 1.86114,0.28265 2.67765,0.25615 1.32235,0.14269 3.08101,0.26067 0.918989,0.0741 3.54366,0.38859 0.456342,0.075 3.00154,0.38136 0.998456,0.14898 0.17974,0.0308 3.82026,0.86143 1.15729,0.11612 2.84271,0.41791 1.76632,0.19112 2.23368,0.32849 3.55385,1.45904 0.446147,0.10769 0.648668,0.33846 3.35133,1.68479 1.76073,0.0759 2.23927,0.38311 1.73443,-0.40941 2.26557,0.11832 1.03149,-0.82126 2.96851,-0.88132 0.09834,-0.0518 0.132437,-0.0983 1.9492,-1.82003 1.82003,-0.93254 0.909752,-0.33768 1.41128,-0.90976 1.004,-0.67495 0.674959,-0.31268 2.42911,-0.58325 1.57089,-0.88033 1.35871,-0.19007 2.64129,-0.67257 0.377917,-0.30823 0.816867,-0.37791 1.74583,-1.05939 1.05939,-0.43021 1.39126,-1.11914 2.58286,-1.39126 0.01597,-0.01 0.0099,-0.005 2.10185,-1.88298 1.89815,-0.85468 0.740624,-0.50655 1.24712,-0.74062 1.16913,-0.84313 0.843126,-0.31692 1.86539,-0.97456 2.13461,-1.62925 0.16296,-0.0732 0.24327,-0.16296 2.45541,-1.13836 1.13836,-0.9526 1.19608,-0.71296 1.36728,-1.19608 0.93683,-0.49981 0.49981,-0.41444 1.97846,-1.10729 2.02154,-1.15448 0.49791,-0.32607 0.6763,-0.4979 1.68068,-1.14511 1.14511,-0.97062 0.97132,-0.91296 1.2887,-0.97131 0.95262,-0.78737 0.78737,-0.4399 1.93254,-0.84019 2.03469,-1.93254 0.0186,-0.0142 0.0142,-0.017 2.08109,-1.88769 1.91891,-1.24388 0.55231,-0.28489 1.91682,-0.55231 1.17574,-0.35514 0.35514,-0.50395 1.07138,-2.06954 1.64794,-1.07138 0.75312,-0.52756 0.52757,-0.46367 1.53544,-1.47332 2.46456,-1.21072 0.19918,-0.12554 0.24128,-0.19918 1.93888,-1.62066 1.62066,-0.90479 1.02988,-0.44467 1.1886,-1.02988 1.04097,-0.74055 0.74055,-0.47147 1.8291,-0.95889 2.1709,-1.60025 0.13758,-0.0913 0.18401,-0.13758 2.20318,-1.47523 1.47523,-1.27766 0.67208,-0.57503 0.86791,-0.67208 1.3678,-1.0922 1.0922,-0.93003 1.10204,-0.87573 1.21121,-1.10204 0.94149,-0.74525 0.74526,-0.58371 1.49698,-1.17406 1.77539,-1.49698 0.3827,-0.34492 0.34492,-0.24508 1.81781,-1.59219 2.18219,-1.15545 0.50109,-0.16127 0.95977,-0.50109 1.70712,-0.83201 0.83202,-0.71192 1.25994,-1.19613 1.13944,-1.25994 0.71714,-0.88348 0.88348,-0.73999 1.25857,-1.11796 1.22359,-1.25857 0.76997,-0.74788 0.74788,-0.46556 1.70698,-1.07958 1.97216,-1.70698 0.15912,-0.16173 0.16174,-0.1313 1.98541,-1.72156 2.01459,-1.69192 0.14995,-0.14354 0.1457,-0.14995 1.75476,-1.94959 1.94959,-1.90088 0.0725,-0.0771 0.0819,-0.0725 1.94586,-1.89974 1.89974,-1.62747 0.25911,-0.21368 0.33531,-0.25911 1.81471,-1.59087 1.59087,-1.20009 0.68577,-0.52327 0.86528,-0.68577 1.28349,-1.16547 1.16547,-1.21406 0.78052,-0.83995 0.84513,-0.78053 1.18272,-1.19163 1.19163,-0.8673 1.11789,-0.82318 1.94906,-1.11789 0.59087,-0.34218 0.34218,-0.17888 2.28024,-1.1987 1.71976,-0.88761 0.95609,-0.43654 1.89128,-0.95609 0.77515,-0.37748 0.37748,-0.23191 2.11675,-1.27385 1.88325,-1.56438 0.31583,-0.23654 0.43257,-0.31583 1.876,-1.3756 1.3756,-0.86265 1.12152,-0.64023 2.12162,-1.12152 0.50373,-0.25313 0.25313,-0.15177 2.29331,-1.30178 1.70669,-0.99341 1.02762,-0.27229 2.97238,-0.72623 0.20187,-0.0995 0.14913,-0.20187 1.96927,-1.67972 1.67972,-0.7764 1.14886,-0.39501 2.26077,-1.14886 0.38044,-0.20993 0.20993,-0.0818 3.73811,0.0299 0.26189,-0.108 2.13083,-1.49929 1.86917,-1.24404 0.54509,-0.3417 1.49536,-0.54508 1.43333,-0.52624 0.52623,-0.18345 2.08574,-1.20457 1.91426,-0.73192 1.06372,-0.2901 2.93628,-0.95676 0.0768,-0.0301 0.19783,-0.0768 2.70336,-1.02198 1.02198,-0.40333 1.95629,-0.61841 2.04371,-0.77973 0.83789,-0.33868 2.40084,-0.83788 0.55721,-0.20406 0.20406,-0.0698"
                     id="path8180" />
                </g>
              </g>
            </g>
          </g>
        </g>
      </g>
    </g>
    <text
       xml:space="preserve"
       style="font-size:44.52057266px;font-style:normal;font-weight:normal;fill:#000080;fill-opacity:1;stroke:none;font-family:Bitstream Vera Sans"
       x="6.4572468"
       y="58.077595"
       id="text2820"
       transform="scale(0.99993722,1.0000628)"><tspan
         sodipodi:role="line"
         id="tspan2822"
         x="6.4572468"
         y="58.077595"
         style="font-size:62.3288002px;font-style:normal;font-variant:normal;font-weight:normal;font-stretch:normal;fill:#000080;fill-opacity:1;font-family:Comic Sans MS;-inkscape-font-specification:Comic Sans MS">M</tspan></text>
    <text
       xml:space="preserve"
       style="font-size:31.54681969px;font-style:normal;font-weight:normal;fill:#6e8fdd;fill-opacity:1;stroke:none;font-family:Bitstream Vera Sans"
       x="30.735075"
       y="31.712069"
       id="text2824"
       transform="scale(1.0171671,0.98312263)"><tspan
         sodipodi:role="line"
         id="tspan2826"
         x="30.735075"
         y="31.712069"
         style="font-family:Comic Sans MS;-inkscape-font-specification:Comic Sans MS">++</tspan></text>
  </g>
</svg>
